<?xml version="1.0" standalone="no"?>
<!DOCTYPE svg PUBLIC "-//W3C//DTD SVG 1.1//EN" "http://www.w3.org/Graphics/SVG/1.1/DTD/svg11.dtd" >
<!--
2013-9-30: Created.
-->
<svg>
<metadata>
Created by iconfont
</metadata>
<defs>

<font id="iconfont" horiz-adv-x="1024" >
  <font-face
    font-family="iconfont"
    font-weight="500"
    font-stretch="normal"
    units-per-em="1024"
    ascent="896"
    descent="-128"
  />
    <missing-glyph />
    
    <glyph glyph-name="chenggong" unicode="&#58929;" d="M518.992251 743.402533c198.175525 0 359.402533-161.227008 359.402533-359.402533S717.167776 24.597467 518.992251 24.597467 159.589718 185.824475 159.589718 384 320.816726 743.402533 518.992251 743.402533M518.992251 806.826028c-233.520521 0-422.826028-189.305507-422.826028-422.826028 0-233.519498 189.305507-422.826028 422.826028-422.826028s422.826028 189.305507 422.826028 422.826028C941.818279 617.520521 752.512772 806.826028 518.992251 806.826028L518.992251 806.826028zM772.3424 515.574664 772.3424 515.574664c-12.646018 12.646018-34.367739 11.618619-48.270377-2.285043L473.788723 263.007345 350.978676 385.817392c-7.682983 7.682983-24.314779 3.621481-36.96182-9.024537l0 0c-12.646018-12.646018-16.70752-29.278837-9.024537-36.96182l149.395542-149.395542c2.920516-2.920516 7.134491-4.139274 11.929704-3.839445 11.253298-2.483564 24.074302 1.041726 33.388435 10.356882L770.057357 467.303264C783.959995 481.206926 784.988418 502.928646 772.3424 515.574664z"  horiz-adv-x="1024" />

    
    <glyph glyph-name="qian" unicode="&#58881;" d="M897.843742-65.002201 123.640971-65.002201c-31.907711 0-58.014298 26.106588-58.014298 58.014298l0 783.412526c0 31.907711 26.106588 58.014298 58.014298 58.014298l774.203794 0c31.907711 0 58.014298-26.106588 58.014298-58.014298l0-783.412526C955.85804-38.895613 929.752476-65.002201 897.843742-65.002201zM630.78743 596.539674l59.160401 0-40.672328-38.4538c33.521464-32.538067 59.651588-59.160401 78.387301-79.865979l66.554812 62.857607c-23.663956 22.185278-44.125987 40.672328-61.377906 55.462173L871.124194 596.539674l0 82.084507L670.719908 678.624181c9.365298 18.238386 18.97926 37.71395 28.840862 58.420551l-102.051257 0c-19.72218-48.806589-43.878346-90.958618-72.470545-126.45404l0 68.033489L346.820983 678.624181c10.352789 18.238386 19.966751 37.217646 28.840862 56.941873L267.694855 735.566054c-31.05939-63.10627-72.967872-123.496685-125.715213-181.177386 21.687952-26.131147 41.163515-51.025117 58.420551-74.689073 35.496445 35.986609 67.537186 74.93262 96.134501 116.841102l37.71395 0-38.4538-30.319539c21.196765-24.65247 42.151006-50.534953 62.857607-77.647451l65.076134 53.243645c-17.257036 19.718087-34.265408 37.957497-51.025117 54.723346L517.643534 596.540697c12.323677-9.862625 22.428825-17.748223 30.319539-23.663956l-82.823334 0c-61.135382-81.344656-168.853709-154.555052-323.161121-219.631186 20.705578-28.101012 38.696324-55.710836 53.983495-82.824357 52.747341 26.622334 100.323916 53.243645 142.723585 79.865979l0-39.932478 344.605525 0 0 36.235272c43.383066-27.118638 92.437296-53.983495 147.160641-80.605829 12.814864 25.63382 30.319539 56.692187 52.504818 93.177146-129.168872 44.369533-228.505297 103.772458-298.017464 178.219008C601.207741 556.607196 616.488773 576.32426 630.78743 596.539674zM175.996386 32.301939l669.245324 0L845.24171 119.563352 698.082092 119.563352c29.579689 45.849234 55.954383 89.230254 79.126128 130.152269l-96.874351 41.412179c-27.608801-58.669214-57.189514-115.858728-88.74009-171.563424L319.459822 119.564375l71.731718 32.538067c-20.214391 40.914852-43.38716 84.054371-69.51319 129.412418l-85.781712-41.412179c22.185278-40.920992 41.163515-81.102133 56.941873-120.538307l-116.841102 0L175.99741 32.301939zM615.997586 391.698333 400.064628 391.698333c44.369533 31.549553 80.848353 62.608943 109.444645 93.177146C537.610284 453.319785 573.10673 422.261419 615.997586 391.698333zM482.887962 138.790252l93.176123 34.016745c-18.735713 48.806589-37.222763 94.15952-55.462173 136.068002l-90.217744-32.538067C452.072119 227.033016 469.577818 181.184805 482.887962 138.790252z"  horiz-adv-x="1024" />

    
    <glyph glyph-name="fangqi" unicode="&#59856;" d="M846.754668 587.934692c-29.877471 0-29.877471-40.683585-29.877471-40.683585s0-427.828972 0-488.219387c0-60.391439-41.320081-61.026912-81.368192-61.026912L287.982412-1.995191c-40.683585 0-81.368192 1.27197-81.368192 61.026912s0 488.219387 0 488.219387-1.906419 40.683585-31.148417 40.683585-29.877471-40.683585-29.877471-40.683585-1.072425-338.037946 0-488.219387c0.617054-86.056981 54.05308-121.020284 142.394081-122.051777 78.964446-0.873903 445.638593 0 447.526593 0 102.325503 0.833995 142.115742 21.016663 142.393058 122.051777 0.398066 142.752238 0 488.219387 0 488.219387S876.631116 587.934692 846.754668 587.934692zM918.58667 750.671077c0 0 0 0-142.394081 0S673.84662 832.039269 572.77262 832.039269c-101.075023 0-22.249747 0-122.0528 0s-61.025888-81.368192-203.419969-81.368192-142.394081 0-142.394081 0-40.644699-2.542916-40.644699-31.784914 40.644699-29.241998 40.644699-29.241998 0.635473 0 142.394081 0 122.688273 81.368192 223.762273 81.368192l81.369216 0c99.803054 0 61.025888-81.368192 223.762273-81.368192l142.394081 0c0 0 40.565904 1.926886 40.565904 31.16786C959.152575 750.05607 918.58667 750.671077 918.58667 750.671077zM430.377516 120.056586c11.243065 0 20.341281 9.139148 20.341281 20.342304L450.718797 526.908804c0 11.244089-9.098215 20.342304-20.341281 20.342304l-20.342304 0c-11.244089 0-20.342304-9.098215-20.342304-20.342304l0-386.509914c0-11.203156 9.098215-20.342304 20.342304-20.342304L430.377516 120.056586zM613.455181 120.056586c11.244089 0 20.342304 9.139148 20.342304 20.342304L633.797485 526.908804c0 11.244089-9.098215 20.342304-20.342304 20.342304l-20.342304 0c-11.243065 0-20.341281-9.098215-20.341281-20.342304l0-386.509914c0-11.203156 9.098215-20.342304 20.341281-20.342304L613.455181 120.056586z"  horiz-adv-x="1024" />

    
    <glyph glyph-name="shouji" unicode="&#58928;" d="M761.503 893.094h-519.381c-32.405 0-58.932-26.061-58.932-58.528v-902.302c0-32.156 26.217-58.217 58.932-58.217h519.381c32.345 0 58.591 26.061 58.591 58.217v902.613c0 32.156-26.247 58.217-58.591 58.217M452.879 834.877h98.147c6.78 0 12.315-5.536 12.315-12.253 0-6.749-5.535-12.253-12.315-12.253h-98.147c-6.779 0-12.345 5.504-12.345 12.253-0.001 6.717 5.566 12.253 12.345 12.253M501.642-84.593c-29.637 0-53.988 23.946-53.988 53.678 0 29.357 24.040 53.614 53.988 53.614 29.917 0 53.988-23.884 53.988-53.614 0-29.731-24.069-53.678-53.988-53.678M766.357 92.857c0-16.234-13.186-29.108-29.234-29.108h-470.619c-16.358 0-29.326 13.186-29.326 29.108l-0 639.642c0 16.233 13.279 29.139 29.326 29.139h470.246c16.421 0 29.358-13.185 29.358-29.139v-639.642l0.249 0zM766.357 92.857z"  horiz-adv-x="1024" />

    
    <glyph glyph-name="xiangji2" unicode="&#58933;" d="M875.235838-128 148.344606-128c-81.932034 0-148.34563 66.417689-148.34563 148.344606L-0.001023 422.997176c0 61.531402 37.467333 114.303302 90.829681 136.76999-1.861394 2.13564-3.092431 5.173836-3.092431 8.662287 0 0 18.24555 46.619784 26.804483 46.619784l98.295723 0c7.632841 0 28.072359-33.611515 34.037211-43.706431l60.198034 0c0 0 59.709917 116.554576 87.73725 116.554576l321.697793 0c29.375028 0 73.107041-116.554576 73.107041-116.554576l85.621053 0c81.926918 0 148.34563-66.418712 148.34563-148.34563l0-402.65257C1023.580444-61.582311 957.161732-128 875.235838-128L875.235838-128zM160.848385 425.645492c32.302707 0 58.493206 26.092261 58.493206 58.278311 0 32.185027-26.190499 58.278311-58.493206 58.278311s-58.488089-26.093285-58.488089-58.278311C102.360296 451.737754 128.546701 425.645492 160.848385 425.645492L160.848385 425.645492zM555.658336 527.635351c-153.441695 0-277.829679-123.938754-277.829679-276.822746 0-152.888086 124.389008-276.821723 277.829679-276.821723s277.828656 123.933637 277.828656 276.821723C833.488015 403.696598 709.10003 527.635351 555.658336 527.635351L555.658336 527.635351zM555.658336 61.407837c-104.985076 0-190.093453 84.800361-190.093453 189.403744s85.107353 189.403744 190.093453 189.403744c104.984053 0 190.093453-84.800361 190.093453-189.403744S660.642388 61.407837 555.658336 61.407837L555.658336 61.407837zM555.658336 61.407837"  horiz-adv-x="1040" />

    
    <glyph glyph-name="xing" unicode="&#58962;" d="M779.830455-121.733458l-265.668824 160.05551-265.697267-160.112399a42.950741 42.950741 0 0 0-48.326695 2.673755 48.070697 48.070697 0 0 0-17.40785 47.587146l63.430565 313.113748L18.521455 455.968234c-13.027443 12.344783-20.479824 31.402396-15.075426 48.867134 5.489731 17.464738 22.698471 29.894854 40.191654 31.82906l304.893375 33.791709L473.51487 862.720287C480.682809 879.47392 496.61156 892.444475 514.161631 892.444475s33.450379-12.970555 40.646762-29.724188l125.012256-292.26415 304.893375-33.791709c17.464738-1.934206 29.041528-14.364321 34.47437-31.82906 5.461286-17.436294 3.640858-36.550796-9.358142-48.867134l-227.695817-214.412376 63.487453-313.113748a48.070697 48.070697 0 0 0-17.40785-47.558702 42.80852 42.80852 0 0 0-48.383583-2.616866z m0 0"  horiz-adv-x="1024" />

    
    <glyph glyph-name="tianjiayonghu" unicode="&#59396;" d="M506.4 277.1c-73.9 0-143.4 28.8-195.6 81-52.3 52.3-81 121.7-81 195.6s28.8 143.4 81 195.6c52.3 52.3 121.7 81 195.6 81s143.4-28.8 195.6-81c52.3-52.3 81-121.7 81-195.6s-28.8-143.4-81-195.6-121.7-81-195.6-81z m0 489.3c-117.3 0-212.7-95.4-212.7-212.7 0-117.3 95.4-212.7 212.7-212.7s212.7 95.4 212.7 212.7c0 117.3-95.5 212.7-212.7 212.7zM165.4-63.60000000000002c-17.7 0-32 14.3-32 32 0 50.3 9.9 99.2 29.3 145.2 18.8 44.4 45.7 84.3 79.9 118.5s74.1 61.1 118.5 79.9c46 19.5 94.8 29.3 145.2 29.3 17.7 0 32-14.3 32-32s-14.3-32-32-32c-170.3 0-308.9-138.6-308.9-308.9 0-17.6-14.3-32-32-32zM858.6 39.700000000000045H652c-17.7 0-32 14.3-32 32s14.3 32 32 32h206.5c17.7 0 32-14.3 32-32s-14.3-32-31.9-32zM755.3-63.60000000000002c-17.7 0-32 14.3-32 32V175c0 17.7 14.3 32 32 32s32-14.3 32-32v-206.5c0-17.7-14.3-32.1-32-32.1z"  horiz-adv-x="1024" />

    
    <glyph glyph-name="xing1" unicode="&#58957;" d="M519.3728 76.8l-296.482133-155.921067a13.653333 13.653333 0 0 0-19.797334 14.404267l56.661334 330.205867L19.797333 499.3024a13.653333 13.653333 0 0 0 7.5776 23.278933l331.502934 48.196267L507.221333 871.150933a13.653333 13.653333 0 0 0 24.507734 0l148.2752-300.373333 331.502933-48.196267a13.653333 13.653333 0 0 0 7.509333-23.210666l-239.8208-233.8816 56.661334-330.205867a13.653333 13.653333 0 0 0-19.8656-14.336L519.3728 76.8z m0 34.133333l280.917333-147.6608-53.6576 312.7296 227.259734 221.525334-314.026667 45.6704L519.3728 827.733333 378.948267 543.197867l-314.026667-45.6704L292.181333 276.002133l-53.6576-312.7296L519.3728 110.933333z"  horiz-adv-x="1024" />

    
    <glyph glyph-name="dianhua" unicode="&#59099;" d="M512 896C230.4 896 0 665.6 0 384c0-102.4 30.72-194.56 81.92-276.48 0 0 76.8-102.4 40.96-168.96C97.28-102.4 25.6-128 25.6-128H512c281.6 0 512 230.4 512 512S793.6 896 512 896z m266.24-824.32c-51.2-51.2-230.4-5.12-404.48 174.08-179.2 179.2-225.28 358.4-174.08 404.48 40.96 40.96 92.16 112.64 163.84 20.48 76.8-92.16 40.96-117.76-5.12-163.84-30.72-30.72 35.84-107.52 102.4-174.08 66.56-66.56 143.36-128 174.08-97.28 40.96 40.96 66.56 81.92 163.84 5.12 92.16-76.8 25.6-128-20.48-168.96z"  horiz-adv-x="1024" />

    
    <glyph glyph-name="phone" unicode="&#59441;" d="M689.493333 46.421333l31.288889 16.725334a1079.352889 1079.352889 0 0 0-68.152889 90.453333c-20.764444 30.606222-39.822222 62.065778-57.742222 94.094222l-45.852444-24.576a1344.170667 1344.170667 0 0 0-152.917334 269.027556l46.421334 24.917333A1286.485333 1286.485333 0 0 0 392.533333 613.376a1061.205333 1061.205333 0 0 0-42.609777 106.097778l-30.833778-16.497778c-52.337778-29.127111-74.638222-65.592889-66.958222-109.511111l0.455111-1.877333-0.170667-0.113778c2.446222-10.638222 5.12-21.219556 7.907556-31.687111l0.113777-0.512c48.696889-182.954667 143.758222-341.048889 271.928889-481.336889 0.455111-1.080889 0.796444-2.104889 1.137778-3.128889l25.258667-25.031111c33.962667-29.809778 77.539556-30.947556 130.787555-3.413334z m57.742223 30.947556a1041.635556 1041.635556 0 0 0-69.859556 92.103111 1274.424889 1274.424889 0 0 0-56.604444 92.16l35.214222 18.887111c17.92-4.380444 102.684444-100.465778 124.416-185.344l-33.166222-17.806222z m-278.755556 453.575111a1270.784 1270.784 0 0 0-48.924444 94.435556 1024.113778 1024.113778 0 0 0-43.178667 108.316444l29.809778 15.928889c41.130667-31.744 98.645333-171.633778 92.558222-202.410667l-30.321778-16.270222zM512.398222 847.132444c255.203556 0 462.848-207.644444 462.848-462.848 0-255.260444-207.644444-462.848-462.848-462.848-255.260444 0-462.904889 207.644444-462.904889 462.848C49.550222 639.431111 257.194667 847.075556 512.455111 847.075556z m0 48.696889a511.544889 511.544889 0 1 1 0-1023.146666 511.544889 511.544889 0 0 1 0 1023.146666z"  horiz-adv-x="1024" />

    
    <glyph glyph-name="tijiao" unicode="&#58930;" d="M218.2-101c-3.7 0-6.8 0.1-9.8 0.4-38.9 2.2-75.3 17.3-103.8 43.8-34.6 30.9-53.9 76.1-53.9 126.9V728.8C50.7 804 102.7 872 174.3 890.5 195.7 895.9 215.9 895.9 235.4 895.9L791 896c22.2 0 47.3 0 72.2-9.7 37.2-14.3 67.2-39 86.3-71.4 15.5-26.5 23.7-56.2 23.7-86.1v-401.7c0-17.2-13.9-31.2-31.2-31.2s-31.2 13.9-31.2 31.2V728.8c0 18.7-5.2 37.6-15.2 54.5-11.9 20.1-30.9 35.7-55.1 44.9-14.1 5.5-31.4 5.5-49.7 5.5H235.5c-17.9-0.1-32.4-0.2-45.7-3.6-44.4-11.4-76.7-54-76.7-101.3V70c0-32.8 11.9-61.5 33.4-80.7 18.3-16.9 41.2-26.3 66.9-27.8 3.8-0.4 6.5-0.1 8.9-0.1l8.3 0.1h244.8c17.2 0 31.2-13.9 31.2-31.2s-13.9-31.2-31.2-31.2H230.5c-4.9 0-8.9-0.1-12.3-0.1zM683.4-128c-15.7 0-31 5.9-43.1 16.6L553-32.8c-12.7 11.6-13.7 31.3-2.1 44s31.3 13.6 44 2.1l86.9-78.3 223.6 233.3c11.9 12.4 31.8 12.7 44.1 0.7 12.4-12 12.7-31.7 0.7-44.1l-219.5-230.8c-15.3-15.6-30.7-22.1-47.3-22.1zM287.8 200c-16.9 0-31.1-14.3-31.1-31.2 0.7-17.1 14.6-31.2 31.1-31.2h166.5c16.9 0 31.2 14.3 31.2 31.2S471.2 200 454.3 200H287.8zM287.8 434.7c-16.9 0-31.2-14.3-31.2-31.2 0.7-17.1 14.6-31.2 31.2-31.2h416.9c16.9 0 31.2 14.3 31.2 31.2s-14.3 31.2-31.2 31.2H287.8zM287.8 669.4c-16.9 0-31.2-14.3-31.2-31.2 0.7-17.1 14.6-31.2 31.2-31.2h416.9c16.9 0 31.2 14.3 31.2 31.2s-14.3 31.2-31.2 31.2H287.8z"  horiz-adv-x="1024" />

    
    <glyph glyph-name="gongdan" unicode="&#58882;" d="M704.23893333 784.86186667v72.63573333h-383.93173333v-72.63573333h-229.376v-874.9056h404.13866667v53.52106666h-350.6176V731.88693333h175.85493333v-66.08213333h383.93173333v66.08213333h175.85493334v-386.11626666h53.52106666v439.0912h-229.376z m-53.52106666-65.536h-277.43573334v85.1968h277.43573334v-85.1968z m-378.4704-350.07146667H752.29866667v-53.52106667h-480.0512v53.52106667z m479.50506666 107.58826667H271.70133333v53.52106666h480.0512v-53.52106666z m-479.50506666-264.87466667H752.29866667v-53.52106667h-480.0512v53.52106667z m222.8224-248.49066667h438.54506666v-53.52106666h-438.54506666v53.52106666z m437.99893333 382.29333334v-381.7472h-53.52106667v381.7472h53.52106667z"  horiz-adv-x="1024" />

    
    <glyph glyph-name="chuangjiandingdan" unicode="&#58883;" d="M741.888 298.66666667000004h-49.664v-164.864h-165.376v-50.176h165.376v-164.864h49.664v164.864h164.864v50.176h-164.864zM699.904 762.0266666699999c0 26.112-20.992 47.104-47.104 47.104H604.16c-17.408 34.304-52.736 56.832-92.16 56.832s-75.264-22.528-92.16-56.832h-48.64c-26.112 0-47.104-20.992-47.104-47.104v-122.368h374.784l1.024 122.368z m-37.888-88.064h-300.544v84.992c0 5.12 4.608 9.728 9.728 9.728h74.752l4.608 12.8c8.704 26.112 33.792 44.032 61.952 44.032s52.736-17.92 61.952-44.032l4.608-12.8h74.752c5.12 0 9.728-4.608 9.728-9.728v-84.992zM166.912-31.57333332999997V688.81066667h155.648c4.096 3.072 9.216 5.12 15.36 5.12h2.048c-2.048 6.656-1.536 13.824 1.536 19.456-4.608 4.096-6.656 10.24-7.168 16.384-4.096 2.048-7.168 5.12-9.728 9.216h-207.36v-820.224h378.88v50.176h-329.216zM692.224 738.47466667v1.536c-1.024-1.536-2.56-2.56-4.096-4.096 2.56-11.264 1.536-20.992 1.024-32.256 0-1.536-0.512-3.072-0.512-4.608 2.048-3.072 3.584-6.656 4.608-10.752h164.864V326.31466666999995h50.176v411.648h-216.064zM287.232 348.84266666999997h280.064v-50.176h-280.064zM287.232 499.37066667H737.28v-50.176h-450.048z"  horiz-adv-x="1024" />

    
    <glyph glyph-name="dingdan" unicode="&#58884;" d="M287.232 351.50933334H737.28v-50.17600001h-450.048zM287.232 204.05333334H737.28v-50.17600001h-450.048zM692.224 741.14133334v0.512c-2.56-1.024-5.12-2.048-8.192-2.048 7.168-8.192 8.704-20.992 3.584-30.72 2.56-5.12 3.584-11.776 2.56-17.40800001 0.512-0.512 1.536-0.512 2.048-1.02399999v0.512h164.864v-719.87200001h-690.176V691.47733333h164.864c2.048 1.024 4.608 1.536 7.68 2.04800001l1.536 4.608c6.144 18.944 6.144 29.696-2.56 42.49599999-2.048 0.512-4.608 1.024-6.144 2.04800001v-0.51200001h-215.04v-820.224h790.016v819.20000001h-215.04zM287.232 502.03733334H737.28v-50.17600001h-450.048zM699.904 766.74133333c0 26.112-20.992 47.104-47.104 47.10400001H604.16c-17.408 34.304-52.736 56.832-92.16 56.832s-75.264-22.528-92.16-56.832h-48.64c-26.112 0-47.104-20.992-47.104-47.10400001v-122.36799999h374.784l1.024 122.36799999z m-37.888-88.57599999h-300.544v84.992c0 5.12 4.608 9.728 9.728 9.72799999h74.752l4.608 12.80000001c8.704 26.112 33.792 44.032 61.952 44.03199999s52.736-17.92 61.952-44.03199999l4.608-12.80000001h74.752c5.12 0 9.728-4.608 9.728-9.72799999v-84.992z"  horiz-adv-x="1024" />

    
    <glyph glyph-name="chuangjiangongdan" unicode="&#58885;" d="M704 784.96V857.70666667H320v-72.74666667H90.66666667v-874.66666667h404.16v53.33333334H144v768h176v-65.92h384v65.92h176V345.6h53.33333333V784.96H704z m-53.33333333-65.92H373.33333333v85.33333333h277.33333334v-85.33333333zM272 369.28h298.66666667v-53.33333333H272v53.33333333z m480 107.41333333H272v53.33333334h480v-53.33333334z m5.33333333-337.06666666h176v-53.33333334H757.33333333v-176h-53.33333333v176H528v53.33333334h176v176h53.33333333v-176z"  horiz-adv-x="1024" />

    
    <glyph glyph-name="weibaogongdan" unicode="&#58886;" d="M272.24746667 369.25440000000003h160.01706666v-53.52106667h-160.01706666zM272.24746667 529.8176000000001H752.29866667v-53.52106667h-480.0512zM704.23893333 857.4976h-383.93173333v-72.63573333h-229.376v-874.9056h318.94186667v53.52106666h-265.4208V731.88693333h175.85493333v-66.08213333h383.93173333v66.08213333h175.85493334v-289.9968h53.52106666v343.51786667h-229.376v72.0896z m-53.52106666-138.17173333h-277.43573334v85.1968h277.43573334v-85.1968zM800.90453333 288.42666667000003h-50.7904L686.76266667 215.24480000000005l-63.8976 73.18186667H572.07466667l89.01973333-102.12693334h-76.45866667v-25.12213333h76.45866667v-50.7904h-76.45866667v-25.66826667h76.45866667v-76.45866666h50.7904v76.45866666h76.45866667V110.3872h-76.45866667v50.7904h76.45866667v25.12213333h-76.45866667zM686.76266667 400.93013333c-135.44106667 0-245.21386667-109.7728-245.21386667-245.21386666s109.7728-245.21386667 245.21386667-245.21386667 245.21386667 109.7728 245.21386666 245.21386667-109.7728 245.21386667-245.21386666 245.21386666z m135.44106666-381.20106666c-36.0448-36.0448-84.65066667-56.25173333-135.9872-56.25173334s-99.39626667 20.20693333-135.9872 56.25173334-56.25173333 84.65066667-56.25173333 135.9872 20.20693333 99.39626667 56.25173333 135.9872c22.9376 22.9376 45.32906667 33.86026667 51.88266667 37.13706666 39.3216 18.56853333 76.45866667 18.0224 96.6656 16.384v2.73066667c46.42133333-2.73066667 89.56586667-22.39146667 122.88-55.7056 36.0448-36.0448 56.25173333-84.65066667 56.25173333-135.9872s-19.11466667-99.9424-55.7056-136.53333333z"  horiz-adv-x="1024" />

    
    <glyph glyph-name="chaoqigongdan" unicode="&#58887;" d="M144 731.62666667h176v-65.92h384v65.92h176V441.6h53.33333333V784.96H704V857.70666667H320v-72.74666667H90.66666667v-874.66666667h318.82666666v53.33333334H144v768z m229.33333333 72.74666666h277.33333334v-85.33333333H373.33333333v85.33333333z m-101.33333333-435.09333333h160v-53.33333333H272v53.33333333z m480 107.41333333H272v53.33333334h480v-53.33333334z m-65.38666667-75.73333333c-135.46666667 0-245.33333333-109.86666667-245.33333333-245.33333333s109.86666667-245.33333333 245.33333333-245.33333334 245.33333333 109.86666667 245.33333334 245.33333334-109.86666667 245.33333333-245.33333334 245.33333333zM822.4 19.840000000000032c-36.26666667-36.26666667-84.48-56.21333333-135.78666667-56.21333333s-99.52 19.94666667-135.78666666 56.21333333-56.21333333 84.48-56.21333334 135.78666667 19.94666667 99.52 56.21333334 135.78666666c26.56 26.56 59.41333333 44.26666667 95.25333333 51.94666667V112h168.53333333v53.33333333h-115.2V347.20000000000005c46.50666667-2.98666667 89.70666667-22.61333333 122.98666667-55.78666667 36.26666667-36.26666667 56.21333333-84.48 56.21333333-135.78666666S858.66666667 56.10666666999998 822.4 19.840000000000032z"  horiz-adv-x="1024" />

    
    <glyph glyph-name="wodegongdan" unicode="&#58888;" d="M496.53333333-89.70666667c27.41333333 128.21333333 128.32 223.36 248.64 223.36S966.4 38.50666666999996 993.81333333-89.70666667h-54.82666666c-25.38666667 98.34666667-102.72 170.02666667-193.92 170.02666667s-168.53333333-71.68-193.92-170.02666667h-54.61333334z m94.08 378.02666667c0 85.44 69.22666667 154.66666667 154.66666667 154.66666667s154.66666667-69.22666667 154.66666667-154.66666667-69.22666667-154.66666667-154.66666667-154.66666667-154.66666667 69.22666667-154.66666667 154.66666667z m53.33333334 0c0-55.89333333 45.44-101.33333333 101.33333333-101.33333333s101.33333333 45.44 101.33333333 101.33333333-45.44 101.33333333-101.33333333 101.33333333-101.33333333-45.54666667-101.33333333-101.33333333zM115.62666667-36.37333333000004h276.16v-53.33333334H62.29333333v874.66666667h229.33333334V857.70666667h384v-72.74666667h229.33333333v-293.86666667h-53.33333333V731.62666667h-176v-65.92h-384v65.92h-176v-768z m229.33333333 755.41333333h277.33333333v85.33333333h-277.33333333v-85.33333333z m-101.33333333-403.09333333h271.68v53.33333333H243.62666667v-53.33333333z m0 160.74666666h480v53.33333334h-480v-53.33333334z"  horiz-adv-x="1024" />

    
    <glyph glyph-name="eduguanli" unicode="&#58889;" d="M482.41777778-1.7066666700000042H129.82044445c-56.43377778 0-102.4 45.96622222-102.4 102.4V667.648c0 56.43377778 45.96622222 102.4 102.4 102.4h734.09422222c56.43377778 0 102.4-45.96622222 102.4-102.4v-200.93155555c0-18.88711111-15.24622222-34.13333333-34.13333334-34.13333334s-34.13333333 15.24622222-34.13333333 34.13333334V667.648c0 18.77333333-15.36 34.13333333-34.13333333 34.13333333H129.82044445c-18.77333333 0-34.13333333-15.36-34.13333334-34.13333333V100.69333332999997c0-18.77333333 15.36-34.13333333 34.13333334-34.13333333H482.41777778c18.88711111 0 34.13333333-15.24622222 34.13333333-34.13333333s-15.24622222-34.13333333-34.13333333-34.13333334z m155.30666667 515.98222222H192.512c-18.88711111 0-34.13333333 15.24622222-34.13333333 34.13333334s15.24622222 34.13333333 34.13333333 34.13333333h445.21244445c18.88711111 0 34.13333333-15.24622222 34.13333333-34.13333333s-15.24622222-34.13333333-34.13333333-34.13333334zM474.90844445 361.24444444999995h-285.58222223c-18.88711111 0-34.13333333 15.24622222-34.13333333 34.13333333s15.24622222 34.13333333 34.13333333 34.13333333h285.58222223c18.88711111 0 34.13333333-15.24622222 34.13333333-34.13333333s-15.24622222-34.13333333-34.13333333-34.13333333z m279.552-290.816v39.13955555h-46.6488889c-9.216 0.79644445-14.336 5.46133333-15.13244444 13.88088889 0.79644445 8.41955555 5.91644445 13.08444445 15.13244444 13.88088889h46.6488889V158.72000000000003h-46.6488889c-9.216 0.79644445-14.336 5.46133333-15.13244444 13.88088889 0.79644445 8.41955555 5.91644445 13.08444445 15.13244444 13.88088889h26.51022223l-40.39111111 56.77511111c-3.41333333 4.20977778-5.00622222 8.87466667-5.00622222 13.88088889 1.70666667 14.336 9.67111111 22.30044445 24.0071111 24.00711111 8.41955555-0.79644445 14.67733333-4.20977778 18.88711112-10.12622222l46.64888888-66.90133334 46.6488889 66.90133334c4.20977778 5.91644445 10.46755555 9.216 18.8871111 10.12622222 14.336-1.70666667 22.30044445-9.67111111 24.00711112-24.00711111 0-5.00622222-1.70666667-9.67111111-5.00622222-13.88088889L822.61333333 186.48177778000002h26.51022222c9.216-0.79644445 14.336-5.46133333 15.13244445-13.88088889-0.79644445-8.41955555-5.91644445-13.08444445-15.13244445-13.88088889h-46.64888888v-21.39022222h46.64888888c9.216-0.79644445 14.336-5.46133333 15.13244445-13.88088889-0.79644445-8.41955555-5.91644445-13.08444445-15.13244445-13.88088889h-46.64888888v-39.13955555c-0.79644445-14.336-8.87466667-21.39022222-24.00711112-21.39022223s-23.21066667 7.05422222-24.0071111 21.39022223z m23.89333333-122.53866667c-123.33511111 0-223.80088889 100.352-223.80088889 223.80088889S655.01866667 395.37777778 778.35377778 395.37777778c123.33511111 0 223.80088889-100.352 223.80088889-223.80088889s-100.352-223.68711111-223.80088889-223.68711111z m0 379.22133333c-85.78844445 0-155.53422222-69.74577778-155.53422223-155.53422222s69.74577778-155.53422222 155.53422223-155.53422222c85.78844445 0 155.53422222 69.74577778 155.53422222 155.53422222S864.14222222 327.11111111 778.35377778 327.11111111z"  horiz-adv-x="1024" />

    
    <glyph glyph-name="zhuanxierizhi" unicode="&#58890;" d="M960.3232-37.072H750.19306667c-15.088 0-27.31733333 12.2304-27.31733334 27.31946667V579.59786667c0 4.45226667 1.088 8.83733333 3.168 12.77333333l105.06666667 198.63786667a27.3184 27.3184 0 0 0 48.29653333 0l105.06666667-198.63786667a27.3184 27.3184 0 0 0 3.16906667-12.77333333v-589.34933334c0-15.09013333-12.2304-27.32053333-27.31946667-27.32053333zM777.51253333 17.567999999999984h155.49226667V572.81813333l-77.7472 146.98773334-77.74613333-146.98773334v-555.2512zM855.2576 519.5232c-2.74133333 0-5.48266667 0.41173333-8.1312 1.23733333l-105.06453333 32.7552c-14.40426667 4.49066667-22.44266667 19.808-17.95093334 34.21226667 4.49173333 14.4064 19.80906667 22.4448 34.21333334 17.94986667l96.9344-30.2208 96.9344 30.2208c14.40213333 4.49066667 29.7216-3.5456 34.21333333-17.94986667s-3.54666667-29.7216-17.94986667-34.21226667l-105.06666666-32.7552a27.34293333 27.34293333 0 0 0-8.13226667-1.23733333zM960.3232 80.79359999999997H750.19306667c-15.088 0-27.31733333 12.2304-27.31733334 27.3184s12.22933333 27.31946667 27.31733334 27.31946667h210.1312c15.088 0 27.3184-12.23146667 27.3184-27.31946667s-12.2304-27.3184-27.31946667-27.3184zM642.94186667-37.072H65.08373333c-15.088 0-27.3184 12.2304-27.3184 27.31946667v787.98933333c0 15.088 12.23146667 27.3184 27.3184 27.3184h577.85813334c15.08906667 0 27.31946667-12.23146667 27.31946666-27.3184v-787.98933333c0-15.08906667-12.2304-27.31946667-27.31946666-27.31946667z m-550.53866667 54.63893333h523.2192V750.91626667H92.40213333V17.567999999999984zM537.8784 425.5072h-364.01066667c-15.088 0-27.31946667 12.23146667-27.31946666 27.31946667s12.23253333 27.31733333 27.31946666 27.31733333h364.01066667c15.088 0 27.3184-12.2304 27.3184-27.31733333s-12.2304-27.31946667-27.31733333-27.31946667zM537.8784 560.49173333h-364.01066667c-15.088 0-27.31946667 12.23253333-27.31946666 27.31946667s12.23253333 27.3184 27.31946666 27.3184h364.01066667c15.088 0 27.3184-12.23146667 27.3184-27.3184s-12.2304-27.31946667-27.31733333-27.31946667zM537.8784 290.52160000000003h-364.01066667c-15.088 0-27.31946667 12.2304-27.31946666 27.3184s12.23253333 27.31946667 27.31946666 27.31946667h364.01066667c15.088 0 27.3184-12.2304 27.3184-27.31946667s-12.2304-27.31733333-27.31733333-27.31733333zM537.8784 155.53599999999994h-364.01066667c-15.088 0-27.31946667 12.2304-27.31946666 27.3184s12.23253333 27.3184 27.31946666 27.3184h364.01066667c15.088 0 27.3184-12.2304 27.3184-27.31733333s-12.2304-27.31946667-27.31733333-27.31946667z"  horiz-adv-x="1024" />

    
    <glyph glyph-name="qiandao" unicode="&#58891;" d="M837.89653333 819.98613333h108.89066667c24.13973333 0 43.70453333-19.6608 43.70453333-43.78986666V602.18666667c0-24.18453333-19.58506667-43.78986667-43.70453333-43.78986667H75.02826667c-24.13973333 0-43.70453333 19.65866667-43.70453334 43.78986667V776.19626667c0 24.1824 19.5968 43.78986667 43.70453334 43.78986666h108.89066666v-65.39733333h-65.46133333c-11.85813333 0-21.73546667-9.664-21.73546667-21.5968v-87.6032c0-11.76106667 9.728-21.59573333 21.73546667-21.59573333h784.90133333c11.85706667 0 21.73546667 9.664 21.73546667 21.59573333V732.992c0 11.76106667-9.728 21.5968-21.73546667 21.5968h-65.4624v65.39733333z m-196.19306666 0H380.112v-65.39733333h261.59146667v65.39733333zM140.32 514.7957333300001h-65.29066667c-24.1088 0-43.7056-19.4368-43.7056-43.40693333v-523.56586667c0-23.7792 19.5648-43.408 43.70453334-43.408h871.75893333c24.11946667 0 43.70453333 19.4368 43.70453333 43.408V471.3888c0 23.78986667-19.5648 43.40693333-43.70453333 43.40693333h-65.29066667v-65.39733333h21.8624c12.0064 0 21.73546667-9.57973333 21.73546667-21.85386667v-435.89013333c0-12.05013333-9.8784-21.84213333-21.73546667-21.84213333H118.4576c-12.00746667 0-21.73546667 9.57866667-21.73546667 21.84213333V427.54453333c0 12.0704 9.87733333 21.8528 21.73546667 21.8528h21.8624v65.39733334zM707.1008 830.94933333c0 18.02133333 14.51946667 32.63466667 32.69866667 32.63466667 18.05333333 0 32.69973333-14.64533333 32.69973333-32.63466667v-152.7232c0-18.0192-14.5184-32.63466667-32.69973333-32.63466666-18.0512 0-32.69866667 14.64746667-32.69866667 32.63466666V830.94933333z m-457.78346667 0c0 18.02133333 14.51946667 32.63466667 32.69866667 32.63466667 18.07466667 0 32.69866667-14.64533333 32.69866667-32.63466667v-152.7232c0-18.0192-14.51733333-32.63466667-32.69866667-32.63466666-18.07466667 0-32.69866667 14.64746667-32.69866667 32.63466666V830.94933333z m404.032-642.8032c-13.4336-42.19413333-30.20906667-80.256-50.34773333-114.12693333h109.33653333v-24.4608H310.43626667v24.4608h264.74133333c19.5008 32.2944 37.0848 72.74346667 52.75306667 121.3216l25.41866666-7.19466667z m-263.76533333 0.49066667c13.41226667-24.63146667 26.208-55.1584 38.36373333-91.60533333l-23.50293333-5.74933334c-9.60106667 30.0608-22.39466667 59.94986667-38.3616 89.6672l23.50186667 7.68746667z m110.78613333 10.06933333c12.4544-31.0176 22.672-63.78026667 30.67733334-98.30933333l-23.4816-5.74933333c-9.28213333 35.46666667-19.6704 67.61066667-31.1872 96.39466666l23.99146666 7.664zM387.6704 242.34666667h246.9664v-23.03466667H387.6704V242.34666667z m-24.94933333 159.7056c-12.4768-24.93973333-26.8672-47.47093333-43.1744-67.61066667l-22.05546667 13.90186667c30.05973333 36.7648 51.94346667 77.68 65.69706667 122.76906666l25.41866666-5.28c-6.38826667-17.90293333-11.3472-31.16586667-14.85866666-39.808h132.37013333v-23.97226666h-75.78666667c9.6-20.78613333 16.4768-38.21226667 20.6272-52.28266667l-23.50293333-8.6208c-6.38613333 20.4576-14.07146667 40.75413333-23.01226667 60.90453333H362.72z m202.38613333 0c-8.64213333-17.584-18.22186667-33.8912-28.7808-48.9184l-21.58613333 14.38933333c22.39573333 30.688 39.00053333 65.21813333 49.8784 103.58933333l24.928-5.28c-3.83146667-12.464-8.47253333-25.73653333-13.87946667-39.808H720.46933333v-23.97226666h-82.47146666c11.49546667-20.14933333 20.608-38.85013333 27.33333333-56.11626667l-23.96906667-9.10933333c-7.68533333 20.1376-17.92533333 41.88266667-30.69866666 65.22666666h-45.55733334zM519.06133333 348.81066667000005c61.07733333-45.0688 130.43413333-80.4064 208.13653334-105.99466667l-12.47466667-22.52373333c-80.256 27.50506667-148.16746667 63.1424-203.81546667 106.95466666-52.11413333-40.93866667-120.0448-76.42666667-203.83573333-106.4864l-12.45333333 23.03466667c82.79146667 28.12266667 152.19093333 63.14133333 208.13653333 105.01546667h16.30613333z"  horiz-adv-x="1024" />

    
    <glyph glyph-name="kaoqintongji" unicode="&#58892;" d="M914.8625 648.2428125c0 23.289375-18.8596875 42.148125-42.1490625 42.148125H151.5715625c-23.289375 0-42.148125-18.85875-42.148125-42.148125v-634.820625c0-23.2884375 18.85875-42.148125 42.148125-42.148125H872.7125c23.289375 0 42.148125 18.8596875 42.148125 42.148125V648.24375z m57.5259375-634.820625c0-55.0584375-44.615625-99.675-99.675-99.675H151.5715625c-55.059375 0-99.675 44.6165625-99.675 99.675V648.24375c0 55.059375 44.615625 99.675 99.675 99.675H872.7125c55.059375 0 99.675-44.615625 99.675-99.675v-634.820625z m-719.116875 576.28125c-15.885 0-28.7953125 12.909375-28.7953125 28.7953125V834.24c0 15.885 12.9103125 28.7953125 28.7953125 28.7953125s28.7953125-12.9103125 28.7953125-28.7953125v-215.74125c-0.06375-15.885-12.9103125-28.7953125-28.7953125-28.7953125m503.375625 0c-15.885 0-28.7953125 12.909375-28.7953125 28.7953125V834.24c0 15.885 12.9103125 28.7953125 28.7953125 28.7953125s28.7315625-12.9103125 28.7315625-28.7953125v-215.74125c0.06375-15.885-12.8465625-28.7953125-28.7315625-28.7953125m184.035-61.89375H77.7171875c-7.974375 0-14.36625 6.455625-14.36625 14.36625 0 7.9734375 6.4546875 14.3653125 14.36625 14.3653125H940.68125c7.974375 0 14.36625-6.4546875 14.36625-14.3653125a14.315625 14.315625 0 0 0-14.36625-14.36625m-680.00625-154.606875a8.2921875 8.2921875 0 0 1 5.821875-2.1515625c2.278125 0.0628125 4.2403125 1.0125 5.69625 2.53125l16.644375 17.34-0.06375 0.1265625 78.538125 81.1321875c1.4559375 1.4559375 2.278125 3.4809375 2.2153125 5.69625-0.06375 2.1515625-1.07625 4.11375-2.595 5.5059375l-13.9228125 13.415625c-1.51875 1.393125-4.430625 2.2153125-6.70875 2.1525-2.214375-0.06375-3.3534375-1.0125-4.7465625-2.4684375l-43.2234375-48.793125c-9.1134375-9.935625-30.25125-31.959375-34.30125-31.959375-3.9871875 0-9.3028125 6.58125-10.8215625 7.974375l-17.656875 16.2c-1.5825 1.393125-3.6075 2.21625-5.885625 2.1525a8.2096875 8.2096875 0 0 1-5.69625-2.53125l-11.0746875-11.518125c-1.4559375-1.51875-2.278125-3.54375-2.2153125-5.69625a7.8 7.8 0 0 1 2.53125-5.56875l47.465625-43.5403125z m227.259375 0a8.2921875 8.2921875 0 0 1 5.821875-2.1515625c2.278125 0.0628125 4.24125 1.0125 5.69625 2.53125l16.7071875 17.34-0.1265625 0.1265625 78.538125 81.1321875c1.4559375 1.4559375 2.278125 3.4809375 2.2153125 5.69625a7.771875 7.771875 0 0 1-2.53125 5.5059375l-13.92375 13.415625c-1.51875 1.393125-4.4925 2.2153125-6.7715625 2.1525-2.214375-0.06375-3.3534375-1.0125-4.745625-2.4684375l-43.1615625-48.793125c-9.17625-9.935625-30.3140625-31.959375-34.3640625-31.959375-3.9871875 0-9.3028125 6.58125-10.8215625 7.974375l-17.656875 16.2a8.2921875 8.2921875 0 0 1-5.821875 2.1525 8.2096875 8.2096875 0 0 1-5.69625-2.53125l-11.1375-11.518125c-1.456875-1.51875-2.2790625-3.54375-2.21625-5.69625 0.06375-2.214375 1.07625-4.1765625 2.595-5.56875l47.4009375-43.5403125z m219.095625 0a8.2921875 8.2921875 0 0 1 5.821875-2.1515625c2.278125 0.0628125 4.2403125 1.0125 5.69625 2.53125l16.7071875 17.40375-0.1265625 0.1265625 78.538125 81.13125c1.4559375 1.4559375 2.278125 3.481875 2.2153125 5.69625a7.8 7.8 0 0 1-2.53125 5.56875l-13.92375 13.4175c-1.51875 1.3921875-4.4934375 2.214375-6.7078125 2.1515625-2.2153125-0.06375-3.354375-1.0125-4.809375-2.4684375l-43.1615625-48.793125c-9.17625-9.871875-30.3140625-31.959375-34.3640625-31.959375-3.9871875 0-9.3028125 6.58125-10.8215625 7.974375l-17.656875 16.2c-1.51875 1.393125-3.54375 2.21625-5.821875 2.1525a8.2096875 8.2096875 0 0 1-5.69625-2.53125l-11.1384375-11.581875c-1.4559375-1.455-2.278125-3.48-2.2153125-5.6953125 0.06375-2.2153125 1.07625-4.1765625 2.53125-5.56875l47.465625-43.6040625z m-448.696875-161.821875a8.2921875 8.2921875 0 0 1 5.8228125-2.1515625c2.278125 0.0628125 4.2403125 1.0125 5.6953125 2.53125l16.708125 17.40375-0.06375 0.0628125 78.538125 81.1321875c1.455 1.4559375 2.278125 3.4809375 2.214375 5.69625a7.8 7.8 0 0 1-2.53125 5.56875l-13.921875 13.4165625c-1.5825 1.329375-4.494375 2.1515625-6.7725 2.08875-2.2153125-0.06375-3.354375-1.0125-4.809375-2.4684375l-43.1615625-48.793125c-9.1125-9.935625-30.2503125-31.959375-34.3003125-31.959375-3.9871875 0-9.3028125 6.58125-10.8225 7.974375l-17.71875 16.2c-1.5196875 1.393125-3.5446875 2.2153125-5.8228125 2.1525a8.2096875 8.2096875 0 0 1-5.69625-2.53125l-11.0746875-11.518125c-1.4559375-1.4559375-2.278125-3.4809375-2.2153125-5.69625a7.8 7.8 0 0 1 2.53125-5.56875l47.401875-43.5403125z m0-162.58125a8.2921875 8.2921875 0 0 1 5.8228125-2.1525c2.278125 0.06375 4.2403125 1.0125 5.6953125 2.53125l16.708125 17.40375-0.1265625 0.1265625 78.5371875 81.133125c1.4559375 1.51875 2.278125 3.4809375 2.2153125 5.6953125a7.8 7.8 0 0 1-2.53125 5.56875l-13.9228125 13.4175c-1.51875 1.3921875-4.4934375 2.214375-6.70875 2.1515625-2.2153125-0.06375-3.354375-1.0125-4.7465625-2.4684375l-43.160625-48.793125c-9.17625-9.871875-30.3140625-31.959375-34.3640625-31.959375-3.9871875 0-9.3028125 6.58125-10.8225 7.974375l-17.6559375 16.2c-1.5825 1.265625-3.6075 2.08875-5.885625 2.025a8.2096875 8.2096875 0 0 1-5.69625-2.53125l-11.1375-11.5809375c-1.4559375-1.455-2.278125-3.48-2.2153125-5.6953125 0.0628125-2.2153125 1.0753125-4.1765625 2.5940625-5.56875l47.401875-43.4775z m227.323125 162.58125a8.2921875 8.2921875 0 0 1 5.821875-2.1515625c2.278125 0.0628125 4.2403125 1.0125 5.69625 2.53125l16.7071875 17.40375-0.1265625 0.0628125 78.538125 81.1321875c1.455 1.4559375 2.278125 3.4809375 2.2153125 5.69625-0.06375 2.1515625-1.07625 4.11375-2.595 5.5059375l-13.9228125 13.415625c-1.51875 1.393125-4.430625 2.2153125-6.70875 2.1525-2.214375-0.06375-3.354375-1.0125-4.7465625-2.4684375l-43.160625-48.793125c-9.17625-9.935625-30.3140625-31.959375-34.3640625-31.959375-3.9871875 0-9.3028125 6.58125-10.8215625 7.974375l-17.656875 16.2a8.2921875 8.2921875 0 0 1-5.821875 2.1525c-2.2790625-0.06375-4.3040625-1.0125-5.69625-2.4684375l-11.1384375-11.5809375c-1.4559375-1.4559375-2.278125-3.4809375-2.2153125-5.69625 0.06375-2.214375 1.07625-4.1765625 2.595-5.56875l47.4009375-43.5403125z m219.095625 0a8.2921875 8.2921875 0 0 1 5.821875-2.1515625c2.278125 0.0628125 4.2403125 1.0125 5.69625 2.53125l16.7071875 17.40375-0.1265625 0.1265625 78.538125 81.13125c1.455 1.4559375 2.278125 3.481875 2.214375 5.69625a7.8 7.8 0 0 1-2.53125 5.56875l-13.921875 13.4175c-1.51875 1.3921875-4.494375 2.214375-6.70875 2.1515625-2.2153125-0.06375-3.354375-1.0125-4.809375-2.4684375l-43.1625-48.9196875c-9.1753125-9.871875-30.313125-31.959375-34.363125-31.959375-3.9871875 0-9.3028125 6.58125-10.8225 7.974375l-17.6559375 16.2c-1.51875 1.393125-3.54375 2.2153125-5.821875 2.1525a8.2096875 8.2096875 0 0 1-5.69625-2.53125l-11.1384375-11.581875c-1.4559375-1.455-2.278125-3.48-2.2153125-5.6953125 0.06375-2.2153125 1.07625-4.1765625 2.53125-5.56875l47.4646875-43.4775z m12.0871875-68.855625c-17.84625 0-32.0859375 0.06375-32.0859375 0.06375v-90.6890625s14.240625 0.06375 32.0859375 0.06375h25.820625c17.8471875 0 32.71875-0.06375 32.71875-0.06375v90.6890625s-14.8715625-0.06375-32.71875-0.06375h-25.820625z m-258.7753125 0.06375v-90.6253125s14.4928125 0.0628125 32.3390625 0.0628125h25.820625c17.84625 0 32.465625-0.0628125 32.465625-0.0628125l-0.1265625 58.2225c0 17.8471875 0.1265625 32.4028125 0.1265625 32.4028125h-90.6253125z"  horiz-adv-x="1024" />

    
    <glyph glyph-name="zhiwen" unicode="&#58893;" d="M380.56391111 732.67579259c47.69564445 20.26761482 98.304 30.58346667 150.49007407 30.58346666 151.46097778 0 289.57202963-89.4445037 351.9525926-227.79828147 6.67496297-14.68491852 21.23851852-23.54441482 36.40888889-23.54441481 5.5826963 0 11.04402963 1.21362963 16.384 3.51952592 20.14625185 9.10222222 29.00574815 32.768 20.02488888 52.91425186-75.12367408 166.87407408-241.99774815 274.76574815-424.77037037 274.76574814-62.98737778 0-124.15431111-12.50038518-181.80171851-36.89434074-20.26761482-8.61677037-29.73392592-32.03982222-21.11715556-52.4288 8.61677037-20.38897778 32.16118518-29.85528889 52.4288-21.11715556z m616.28112592-351.34577777v7.40314073c0 1.69908148-0.12136297 3.51952592-0.36408888 5.21860742-0.36408889 8.00995555-0.72817778 16.01991111-1.45635556 23.9085037-1.94180741 21.9666963-21.23851852 38.22933333-43.20521481 36.40888888-21.9666963-1.94180741-38.22933333-21.23851852-36.40888889-43.2052148 0.72817778-9.46631111 1.33499259-18.93262222 1.45635556-28.5202963-1.21362963-123.42613333-38.10797037-242.60456297-106.79940742-344.79217778-12.37902222-18.32580741-7.40314075-43.08385185 10.92266667-55.46287408 6.79632592-4.49042963 14.68491852-6.79632592 22.20942222-6.79632592 12.86447408 0 25.48622222 6.18951111 33.25345186 17.59762963 75.73048889 112.74619259 117.11525925 243.93955555 120.14933333 379.74471111 0.12136297 1.45635555 0.24272592 2.79134815 0.24272592 4.36906667v4.12634074zM288.44942222 387.64088889c2.18453333 88.4736 49.88017778 170.63632592 124.5184 214.20562963 19.05398518 11.16539259 25.48622222 35.68071111 14.32082963 54.61333333-11.16539259 19.05398518-35.68071111 25.48622222-54.61333333 14.32082963-47.81700741-27.91348148-88.23087408-68.20598518-116.9938963-116.50844445-27.79211852-46.72474075-43.81202963-99.88171852-46.8461037-154.49505185-0.9709037-3.51952592-1.45635555-7.28177778-1.45635555-11.04402963 0-78.88592592-33.86026667-154.25232592-93.20675556-206.92385185-16.50536297-14.68491852-17.96171852-39.92841482-3.2768-56.43377778 7.88859259-8.8594963 18.81125925-13.47128889 29.85528889-13.47128889 9.46631111 0 18.93262222 3.39816297 26.57848888 10.07312594 73.66731852 65.536 116.9938963 158.62139259 119.78524445 256.68266666 0.72817778 2.79134815 1.33499259 5.82542222 1.33499259 8.98085926zM782.63940741 190.06198517999997c-20.26761482 8.61677037-43.81202963-0.72817778-52.4288-20.99579259-28.03484445-65.77872592-68.08462222-124.88248889-118.81434074-175.85493334-15.65582222-15.65582222-15.53445925-40.89931852 0.12136296-56.55514073 7.76722963-7.76722963 17.96171852-11.65084445 28.1562074-11.65084444 10.31585185 0 20.51034075 3.88361482 28.27757038 11.7722074 58.0114963 58.13285925 103.52260741 125.73202963 135.68379259 200.8557037 8.61677037 20.26761482-0.72817778 43.69066667-20.99579259 52.4288z m0 0M756.54637037 245.52485924999996c-5.5826963-21.35988148 7.03905185-43.20521482 28.39893333-48.90927407 3.51952592-0.84954075 6.79632592-1.33499259 10.19448889-1.33499259 17.59762963 0 33.86026667 11.77220741 38.59342223 29.73392593 12.86447408 48.78791111 19.90352592 99.2749037 20.99579259 150.00462223 0.36408889 1.94180741 0.48545185 3.88361482 0.48545184 5.94678517 0 183.5008-145.02874075 332.89860741-323.31093333 332.89860741-22.08805925 0-39.92841482-17.84035555-39.92841481-39.92841481s17.84035555-39.92841482 39.92841481-39.92841482c131.072 0 238.2354963-108.1344 243.21137778-242.96865185 0-0.72817778-0.12136297-1.45635555-0.12136295-2.3058963 0-48.54518518-6.18951111-96.72628148-18.44717038-143.2082963z m0 0M712.37025185 362.88284445c1.69908148 4.49042963 2.66998518 9.34494815 2.66998518 14.32082963 0 102.30897778-81.67727408 185.32124445-182.1658074 185.32124444-47.93837037 0-93.32811852-18.81125925-127.55247408-53.03561482-28.64165925-28.5202963-46.8461037-65.05054815-52.67152592-104.73623703-2.18453333-4.97588148-3.39816297-10.43721482-3.39816296-16.14127408 0-46.48201482-9.10222222-91.62903703-26.82121482-134.10607407-8.61677037-20.38897778 1.09226667-43.81202963 21.35988148-52.30743704 5.09724445-2.18453333 10.31585185-3.15543703 15.53445926-3.15543703 15.65582222 0 30.4621037 9.22358518 36.77297778 24.51531852 19.41807408 46.23928889 30.34074075 95.0272 32.768 145.1501037 1.09226667 3.51952592 1.82044445 7.28177778 1.82044445 11.16539258 1.45635555 56.6765037 47.21019259 102.67306667 102.30897777 102.67306667 50.48699259 0 92.35721482-37.86524445 100.73125926-87.38133333-0.36408889-2.18453333-0.48545185-4.36906667-0.48545185-6.5536 0-150.24734815-67.8418963-290.17884445-186.04942222-383.87105184-17.3549037-13.71401482-20.14625185-38.83614815-6.5536-56.0696889 7.88859259-9.95176297 19.6608-15.17037037 31.31164444-15.17037037 8.61677037 0 17.47626667 2.79134815 24.75804445 8.61677037 65.90008889 52.18607408 120.39205925 119.54251852 157.52912592 194.54482963 35.19525925 71.1186963 54.7346963 147.21327408 58.13285926 226.22056297z m0 0M571.10376297 388.73315555c0 22.08805925-17.84035555 39.92841482-39.92841482 39.92841482s-39.92841482-17.84035555-39.92841482-39.92841482c0-135.44106667-66.26417778-263.35762963-177.31128888-342.00082963-17.96171852-12.74311111-22.20942222-37.74388148-9.58767408-55.7056 7.76722963-10.92266667 20.14625185-16.86945185 32.64663704-16.86945184 8.00995555 0 16.01991111 2.42725925 23.05896296 7.40314074 63.83691852 45.14702222 116.75117037 105.46441482 153.28142222 174.39857777 37.74388148 71.24005925 57.76877037 151.7037037 57.76877038 232.77416296zM349.98044445 140.90998518000004c12.74311111 17.96171852 8.61677037 42.84112592-9.34494815 55.7056-17.96171852 12.74311111-42.84112592 8.61677037-55.7056-9.34494815-22.08805925-30.94755555-48.90927408-58.0114963-79.61410371-80.22091851-17.84035555-12.98583703-21.72397037-37.86524445-8.85949629-55.82696297 7.76722963-10.67994075 20.02488889-16.50536297 32.40391111-16.50536296 8.13131852 0 16.384 2.54862222 23.42305184 7.52450371 37.74388148 27.54939259 70.63324445 60.68148148 97.6971852 98.66808888zM145.36248889 391.5245037c3.03407408 82.52681482 31.7970963 160.32047408 83.13362963 225.24965927 13.71401482 17.3549037 10.8013037 42.35567408-6.5536 56.06968888-17.3549037 13.71401482-42.35567408 10.8013037-56.06968889-6.5536C102.64272592 586.67614815 67.81155555 490.79940741 65.26293333 389.09724445c0-1.57771852 0-3.15543703 0.12136297-4.6117926-0.72817778-37.98660741-11.89357037-75.00231111-32.52527408-106.92077037-11.89357037-18.56853333-6.5536-43.20521482 12.01493333-55.22014815 6.67496297-4.36906667 14.19946667-6.43223703 21.60260742-6.43223703 13.1072 0 25.97167408 6.5536 33.7389037 18.3258074C129.70666667 280.23466667 145.48385185 333.63437037000006 145.48385185 388.49042963c0 1.09226667 0 2.06317037-0.12136296 3.03407407z m0 0"  horiz-adv-x="1024" />

    
    <glyph glyph-name="dingwei" unicode="&#58894;" d="M512.103 575.8787939900001a106.221969 106.221969 0 1 0-75.50697801-31.35499099 106.221969 106.221969 0 0 0 75.50697801 31.35499099m0 63.98898101a170.84995001 170.84995001 0 1 1 120.939965-49.91098501 169.56995001 169.56995001 0 0 1-120.939965 49.91098501zM805.17291401 771.684736a407.609881 407.609881 0 0 1-586.13982802 0 431.28587399 431.28587399 0 0 1 0-599.576824L512.104-128l293.06991401 300.107912a431.28587399 431.28587399 0 0 1-2e-8 599.576824zM761.019927 214.34090000000003L512.103-41.615024999999946 263.186073 214.34090000000003a365.376893 365.376893 0 0 0 0 508.712851 346.81989801 346.81989801 0 0 0 497.833854 0 365.376893 365.376893 0 0 0 0-508.712851z"  horiz-adv-x="1024" />

    
    <glyph glyph-name="kaoqintongji1" unicode="&#58895;" d="M914.72 648.48c0 23.52-18.72 42.24-42.24 42.24h-720.96c-23.52 0-42.24-18.72-42.24-42.24v-635.04c0-23.52 18.72-42.24 42.24-42.24h720.96c23.52 0 42.24 18.72 42.24 42.24V648.48z m57.6-635.04c0-55.2-44.64-99.84-99.84-99.84h-720.96c-55.2 0-99.84 44.64-99.84 99.84V648.48c0 55.2 44.64 99.84 99.84 99.84h720.96c55.2 0 99.84-44.64 99.84-99.84v-635.04zM253.28 589.9200000000001c-15.84 0-28.8 12.96-28.8 28.8v215.52c0 15.84 12.96 28.8 28.8 28.8s28.8-12.96 28.8-28.8V618.72c0-15.84-12.96-28.8-28.8-28.8m503.52 0c-15.84 0-28.8 12.96-28.8 28.8v215.52c0 15.84 12.96 28.8 28.8 28.8s28.8-12.96 28.8-28.8V618.72c0-15.84-12.96-28.8-28.8-28.8m183.84-61.92h-863.04c-8.16 0-14.4 6.24-14.4 14.4s6.24 14.4 14.4 14.4H940.64c8.16 0 14.4-6.24 14.4-14.4s-6.24-14.4-14.4-14.4m-509.28-431.04c3.84-3.84 9.6-5.76 15.36-5.76 6.24 0 11.04 2.88 14.88 6.72l43.68 45.6v0.48l207.36 214.08c3.84 3.84 6.24 9.12 5.76 14.88 0 5.76-2.88 11.04-6.72 14.4l-36.96 35.52c-3.84 3.84-11.52 5.76-17.76 5.76-5.76 0-8.64-2.88-12.48-6.72l-114.24-128.64c-24-26.4-79.68-84.48-90.72-84.48-10.56 0-24.48 17.28-28.32 21.12l-46.56 42.72c-4.32 3.84-9.6 5.76-15.36 5.76-5.76 0-11.04-2.88-14.88-6.72l-29.28-30.24c-3.84-3.84-6.24-9.12-5.76-14.88 0-5.76 2.88-11.04 6.72-14.88l125.28-114.72z"  horiz-adv-x="1024" />

    
    <glyph glyph-name="jixiaoguanli" unicode="&#58896;" d="M96 832v-385.408c19.84 14.976 40.96 28.288 64 38.464V768h768v-512H608a255.872 255.872 0 0 1-159.936 236.992 32.64 32.64 0 0 1 21.952 8.832l66.688 60.736 88.64-82.944a29.504 29.504 0 0 1 9.152-22.4 32.832 32.832 0 0 1 45.12 0l6.848 7.68 1.024 0.64c0.704 0.64 0.96 1.472 1.472 2.176l165.376 184.896a29.632 29.632 0 0 1 0 43.2 32.832 32.832 0 0 1-45.12 0l-145.6-162.752-100.736 94.272a34.304 34.304 0 0 1-47.104 0c-0.704-0.64-0.96-1.536-1.536-2.24-1.6-1.088-3.456-1.728-4.864-3.072l-84.48-76.928a29.696 29.696 0 0 1 0-43.264c1.408-1.408 3.264-2.112 4.928-3.136A252.608 252.608 0 0 1 352 512v-256h249.536A319.226 319.226 0 0 0 608 192h384V832H96z m320-512V436.224A190.848 190.848 0 0 0 532.224 320H416zM480 192H288V448a256 256 0 1 1 256-256h-64zM288 0A192 192 0 0 0 96 192a191.36 191.36 0 0 0 128 180.224V128h244.224A191.36 191.36 0 0 0 288 0z"  horiz-adv-x="1024" />

    
    <glyph glyph-name="tongxunlu" unicode="&#58897;" d="M887.46666667-93.86666666999997H153.6a68.34133333 68.34133333 0 0 0-68.26666667 68.26666667V93.86666666999997a34.13333333 34.13333333 0 0 0 68.26666667 0v-119.46666667h733.86666667V793.6H153.6v-153.6a34.13333333 34.13333333 0 0 0-68.26666667 0V793.6a68.34133333 68.34133333 0 0 0 68.26666667 68.26666667h733.86666667a68.34133333 68.34133333 0 0 0 68.26666666-68.26666667v-819.2a68.34133333 68.34133333 0 0 0-68.26666666-68.26666667zM153.6 196.26666666999995h-68.26666667a34.13333333 34.13333333 0 0 0 0 68.26666666h68.26666667a34.13333333 34.13333333 0 0 0 0-68.26666666z m0 136.53333333h-68.26666667a34.13333333 34.13333333 0 0 0 0 68.26666667h68.26666667a34.13333333 34.13333333 0 0 0 0-68.26666667z m0 136.53333333h-68.26666667a34.13333333 34.13333333 0 0 0 0 68.26666667h68.26666667a34.13333333 34.13333333 0 0 0 0-68.26666667z m358.4-153.6c-94.10133333 0-170.66666667 76.56533333-170.66666667 170.66666667s76.56533333 170.66666667 170.66666667 170.66666667 170.66666667-76.56533333 170.66666667-170.66666667-76.56533333-170.66666667-170.66666667-170.66666667z m0 273.06666667a102.4 102.4 0 1 1 102.4-102.4 102.51733333 102.51733333 0 0 1-102.4 102.4zM716.8 110.93333332999998a34.13333333 34.13333333 0 0 0-34.13333333 34.13333334c0 94.10133333-76.56533333 170.66666667-170.66666667 170.66666666s-170.66666667-76.56533333-170.66666667-170.66666666a34.13333333 34.13333333 0 0 0-68.26666666 0 238.93333333 238.93333333 0 1 0 477.86666666 0 34.13333333 34.13333333 0 0 0-34.13333333-34.13333334zM887.46666667-93.86666666999997H153.6a68.34133333 68.34133333 0 0 0-68.26666667 68.26666667V93.86666666999997a34.13333333 34.13333333 0 0 0 68.26666667 0v-119.46666667h733.86666667V793.6H153.6v-153.6a34.13333333 34.13333333 0 0 0-68.26666667 0V793.6a68.34133333 68.34133333 0 0 0 68.26666667 68.26666667h733.86666667a68.34133333 68.34133333 0 0 0 68.26666666-68.26666667v-819.2a68.34133333 68.34133333 0 0 0-68.26666666-68.26666667zM153.6 196.26666666999995h-68.26666667a34.13333333 34.13333333 0 0 0 0 68.26666666h68.26666667a34.13333333 34.13333333 0 0 0 0-68.26666666z m0 136.53333333h-68.26666667a34.13333333 34.13333333 0 0 0 0 68.26666667h68.26666667a34.13333333 34.13333333 0 0 0 0-68.26666667z m0 136.53333333h-68.26666667a34.13333333 34.13333333 0 0 0 0 68.26666667h68.26666667a34.13333333 34.13333333 0 0 0 0-68.26666667z m358.4-153.6c-94.10133333 0-170.66666667 76.56533333-170.66666667 170.66666667s76.56533333 170.66666667 170.66666667 170.66666667 170.66666667-76.56533333 170.66666667-170.66666667-76.56533333-170.66666667-170.66666667-170.66666667z m0 273.06666667a102.4 102.4 0 1 1 102.4-102.4 102.51733333 102.51733333 0 0 1-102.4 102.4zM716.8 110.93333332999998a34.13333333 34.13333333 0 0 0-34.13333333 34.13333334c0 94.10133333-76.56533333 170.66666667-170.66666667 170.66666666s-170.66666667-76.56533333-170.66666667-170.66666666a34.13333333 34.13333333 0 0 0-68.26666666 0 238.93333333 238.93333333 0 1 0 477.86666666 0 34.13333333 34.13333333 0 0 0-34.13333333-34.13333334z"  horiz-adv-x="1024" />

    
    <glyph glyph-name="renyuanxinxi" unicode="&#58898;" d="M958.80975567 727.59738368H787.71805433v63.62914512c-1.41398101 19.79573404-18.38175303 35.34952507-39.59146807 33.93554407-18.38175303-1.41398101-33.93554407-15.55379103-33.93554408-33.93554407v-63.62914512H554.41118887v63.62914512c-1.41398101 19.79573404-18.38175303 35.34952507-39.59146808 33.93554407-18.38175303-1.41398101-33.93554407-15.55379103-33.93554406-33.93554407v-63.62914512H322.51830441v63.62914512c-1.41398101 19.79573404-18.38175303 35.34952507-39.59146807 33.93554407-18.38175303-1.41398101-33.93554407-15.55379103-33.93554408-33.93554407v-63.62914512H75.07162891c-32.52156306 1.41398101-59.38720211-24.03767705-60.80118311-56.55924012v-680.12486233c1.41398101-32.52156306 28.27962006-57.97322111 60.80118311-56.55924011h883.73812676c32.52156306-1.41398101 59.38720211 24.03767705 60.80118312 56.55924011V671.03814356c-1.41398101 32.52156306-28.27962006 57.97322111-60.80118312 56.55924012z m-5.65592401-728.20021644H80.72755294V661.1402765400001H248.99129226v-63.62914512c1.41398101-19.79573404 18.38175303-35.34952507 39.59146808-33.93554406 18.38175303 1.41398101 33.93554407 15.55379103 33.93554407 33.93554406v63.62914512h158.36587232v-63.62914512c1.41398101-19.79573404 18.38175303-35.34952507 39.59146807-33.93554406 18.38175303 1.41398101 33.93554407 15.55379103 33.93554407 33.93554406v63.62914512h159.77985331v-63.62914512c1.41398101-19.79573404 18.38175303-35.34952507 39.59146808-33.93554406 18.38175303 1.41398101 33.93554407 15.55379103 33.93554407 33.93554406v63.62914512h166.84975833v-661.7431093z m-374.70496575 428.43624385c0-15.55379103 12.72582902-26.86563906 26.86563906-26.86563906h219.16705544c14.13981003 0 26.86563906 11.31184801 26.86563904 26.86563906 0 14.13981003-11.31184801 26.86563906-26.86563904 26.86563904h-219.16705544c-14.13981003 0-26.86563906-11.31184801-26.86563906-26.86563904z m26.86563906-158.36587232h164.02179632c14.13981003 0 26.86563906 11.31184801 26.86563906 26.86563906 0 14.13981003-11.31184801 26.86563906-26.86563906 26.86563906H605.31450497c-14.13981003 0-26.86563906-11.31184801-26.86563906-26.86563906 0-14.13981003 12.72582902-26.86563906 26.86563906-26.86563906z m219.16705544-79.18293616h-219.16705544c-14.13981003 0-26.86563906-12.72582902-26.86563906-26.86563904s12.72582902-26.86563906 26.86563906-26.86563906h219.16705544c14.13981003 0 26.86563906 12.72582902 26.86563904 26.86563906s-11.31184801 26.86563906-26.86563904 26.86563904zM345.14200044 249.67180473999997c-1.41398101 4.24194301-1.41398101 7.06990501-2.827962 11.31184801 12.72582902 14.13981003 21.20971504 31.10758207 26.86563905 49.4893351 7.06990501 2.82796201 11.31184801 9.89786702 14.13981004 16.96777203 5.65592402 12.72582902 4.24194301 25.45165805-4.24194301 36.76350608 1.41398101 14.13981003 5.65592402 52.31729711-16.96777204 76.35497416-15.55379103 15.55379103-38.17748707 24.03767705-59.38720212 22.62369604-22.62369604 1.41398101-43.83341109-5.65592402-60.80118312-21.20971505-22.62369604-25.45165805-18.38175303-62.21516412-16.96777203-76.35497414-7.06990501-11.31184801-8.48388603-25.45165805-4.241943-36.76350608 2.82796201-7.06990501 7.06990501-12.72582902 14.13981002-16.96777204 4.24194301-18.38175303 14.13981003-35.34952507 26.86563906-49.48933509 0-4.24194301-1.41398101-7.06990501-2.827962-11.31184802-26.86563906-5.65592402-125.84430924-57.97322111-125.84430927-110.29051822v-8.48388602H468.1583477v8.48388602c2.82796201 50.90331611-96.15070819 103.22061322-123.01634726 108.87653722z"  horiz-adv-x="1024" />

    
    <glyph glyph-name="gongchang" unicode="&#58899;" d="M981.75968281 469.87968188a19.7596875 19.7596875 0 0 1-20.199375-0.39937501L751.99999812 341.27999531V452.47968187a19.9996875 19.9996875 0 0 1-30.44062499 17.04000001L512 341.27999531v111.15937406a20.0803125 20.0803125 0 0 1-30.3196875 17.1609375l-222.59999719-134.12062312L240.20000281 844.75967812A19.9996875 19.9996875 0 0 1 220.20031531 863.99999063H75.03969219a19.9996875 19.9996875 0 0 1-19.9996875-19.51968751L33.36031719-75.52031250000005A19.9996875 19.9996875 0 0 1 53.31875469-96h918.68061562a19.9996875 19.9996875 0 0 1 19.9996875 19.9996875v528.44061937a19.9996875 19.9996875 0 0 1-10.2403125 17.439375z m-509.75999531-52.83937407v-473.03999531H273.60031437L260.75937781 289.72030874999996l211.23937219 127.31999906zM73.80031719-55.99968750000005L94.55937875 823.99967813h106.35937406l19.400625-523.39968188c0-0.24-0.1603125-0.440625-0.1603125-0.6796875l13.2796875-352.96030875 0.12-2.9596875H73.80031719zM512 294.35999625l199.99968563 122.39999906v-472.75968281H512V294.35999625z m439.99968281-350.35968375H751.99999812V294.35999625l199.99968469 122.39999906v-472.75968281zM372.27968844 178.60030969000002A19.9996875 19.9996875 0 0 1 392.28125094 198.59999718999995v50.27999906a19.9996875 19.9996875 0 0 1-40.00031157 0v-50.27999906a19.9996875 19.9996875 0 0 1 19.99968657-19.9996875z m240.04031062 90.27937406a19.9996875 19.9996875 0 0 1-19.9996875-19.9996875v-50.27999906a19.9996875 19.9996875 0 0 1 39.999375 0v50.27999906a19.9996875 19.9996875 0 0 1-19.9996875 19.9996875z m239.99999719-90.27937406a19.9996875 19.9996875 0 0 1 19.9996875 19.9996875v50.27999906a19.9996875 19.9996875 0 0 1-39.99937406 0v-50.27999906a19.9996875 19.9996875 0 0 1 19.99968656-19.9996875z"  horiz-adv-x="1024" />

    
    <glyph glyph-name="dianchang" unicode="&#58900;" d="M342.4 788.59733333c33.87733333-22.73066667 65.51466667-30.19733333 97.06666667-42.82666666 133.52533333-53.33333333 189.73866667-33.984 234.34666666 6.4 31.89333333 28.8 73.06666667 47.84 124.93866667 47.66933333 64.24533333-0.18133333 79.456-16 106.66666667-39.79733333 15.392-13.42933333 40.40533333-24.10666667 56.27733333-11.456s16 33.00266667 0.192 45.728c-32.18133333 25.024-68.61866667 63.81866667-164.832 67.08266666C722.13333333 864 701.33333333 851.88266667 644.128 813.33333333c-15.60533333-10.51733333-41.17333333-46.08-66.86933333-46.51733333-67.73333333-1.06666667-66.66666667 19.62666667-97.29066667 35.79733333C442.57066667 822.4 433.06666667 837.51466667 378.25066667 837.51466667c-14.80533333 0-28.45866667-6.21866667-35.82933334-16.30933334s-10.38933333-25.632-0.02133333-32.608z m50.13333333-500.17066666a23.89333333 23.89333333 0 1 1-23.89333333 23.89333333 23.89333333 23.89333333 0 0 1 23.89333333-23.89333333z m238.93333334 0a23.89333333 23.89333333 0 1 1-23.89333334 23.89333333 23.89333333 23.89333333 0 0 1 23.89333334-23.89333333z m238.93333333 0a23.89333333 23.89333333 0 1 1-23.89333333 23.89333333 23.89333333 23.89333333 0 0 1 23.89333333-23.89333333z m119.46666667 358.4a23.91466667 23.91466667 0 0 1-0.81066667 6.18666666 22.528 22.528 0 0 1-6.144 11.264 22.784 22.784 0 0 1-21.088 6.08 23.92533333 23.92533333 0 0 1-17.77066667-14.016L750.93333333 425.93066667V646.82666667a23.91466667 23.91466667 0 0 1-0.82133333 6.21866666 22.51733333 22.51733333 0 0 1-6.144 11.232 22.80533333 22.80533333 0 0 1-21.152 6.06933334 23.92533333 23.92533333 0 0 1-17.68533333-13.96266667L512 425.92V646.82666667a23.904 23.904 0 0 1-0.85333333 6.32533333 22.51733333 22.51733333 0 0 1-6.112 11.12533333 22.79466667 22.79466667 0 0 1-21.13066667 6.06933334 23.92533333 23.92533333 0 0 1-17.70666667-13.99466667L273.06666667 425.93066667V838.4a23.46666667 23.46666667 0 0 1-23.46666667 23.46666667H57.6a23.46666667 23.46666667 0 0 1-23.46666667-23.46666667v-909.12A23.14666667 23.14666667 0 0 1 57.28-93.86666666999997h909.44a23.14666667 23.14666667 0 0 1 23.14666667 23.14666667v0.74666667zM225.28 366.61333333000005a22.69866667 22.69866667 0 0 1 0-14.47466666V-47.57333332999997H81.92V814.08h143.36z m238.93333333 0a22.688 22.688 0 0 1 0-14.38933333V-47.57333332999997H273.06666667V355.40266667000003L464.21333333 583.46666667z m238.93333334 0a22.688 22.688 0 0 1 0-14.47466666V-47.57333332999997H512V355.39200000000005L703.14666667 583.46666667z m238.93333333-414.18666666H750.93333333V355.39200000000005L942.08 583.46666667z"  horiz-adv-x="1024" />

    
    <glyph glyph-name="zhuangtai" unicode="&#58901;" d="M984.40533333 676.72746667C984.40533333 741.1712 923.78453333 793.6 849.5104 793.6H174.4896C99.66933333 793.6 39.59466667 741.1712 39.59466667 676.72746667V91.81866666999997c0-64.44373333 60.6208-116.87253333 134.89493333-116.87253334h675.0208c74.82026667 0 134.89493333 52.4288 134.89493333 116.87253334V676.72746667z m-857.42933333 30.03733333c12.56106667 10.92266667 30.03733333 17.47626667 48.05973333 16.93013333h675.0208c37.13706667 0 67.72053333-15.29173333 67.72053334-47.5136v-263.23626666H864.256l-57.89013333 50.24426666c-13.1072 11.4688-34.4064 11.4688-47.5136 0-3.82293333-3.2768-6.5536-7.09973333-8.192-11.4688L709.15413333 343.03999999999996 610.304 513.97973333c-8.192 14.19946667-28.39893333 20.20693333-45.32906667 13.1072-7.64586667-3.2768-13.1072-8.73813333-16.384-15.29173333l-98.304-212.992-108.1344 327.68c-4.9152 15.29173333-24.02986667 24.576-41.50613333 20.20693333-9.28426667-2.18453333-16.93013333-7.64586667-20.75306667-15.29173333L154.28266667 413.4912h-46.42133334V665.8048c-1.09226667 15.29173333 6.5536 30.03733333 19.11466667 40.96z m773.87093333-652.62933333c-8.192-8.192-33.31413333-10.37653333-51.33653333-10.37653334H174.4896c-18.0224 0-34.95253333 6.00746667-48.05973333 16.93013334s-19.6608 25.66826667-19.6608 41.50613333V354.50879999999995h67.72053333c12.56106667 0 24.576 6.00746667 30.03733333 16.384l96.11946667 166.57066667 111.4112-337.5104c3.82293333-12.01493333 16.384-20.75306667 30.58346667-21.2992h1.6384c13.65333333 0 26.2144 7.09973333 31.1296 18.56853333L582.99733333 429.8752l101.5808-175.85493333c8.192-14.19946667 28.39893333-20.20693333 45.32906667-13.1072 8.192 3.2768 14.19946667 9.28426667 16.93013333 16.93013333l50.24426667 130.52586667 28.94506667-25.12213334c6.5536-5.46133333 14.7456-8.73813333 24.02986666-8.73813333h67.1744v-252.3136c0-15.29173333-10.37653333-43.14453333-15.29173333-47.5136l-1.09226667-0.54613333z"  horiz-adv-x="1024" />

    
    <glyph glyph-name="jixiaopinggu" unicode="&#58902;" d="M648.1061357 566.44494222l-93.37909095 13.51497956-41.7743455 84.47104947-41.7755591-84.47104947-93.07082904-13.51497956 67.57489778-66.04086992-15.97136592-92.76378075 83.24164266 43.61542163 83.54869096-43.61542163-15.97136592 92.76256712 67.57732503 66.04208355z m-135.15222281-94.29902222l-58.97633186-31.33106252 11.05737956 66.04086993-47.91652504 46.69075911 66.34791823 9.52092445 29.48755911 60.20573866 29.79460741-60.20573866 66.04086992-9.52092445-47.91652504-46.69075911 11.36442785-66.04086993-59.28338014 31.33106252zM418.91218015 392.80852385l18.03939082 104.7677914-76.28147675 74.54962727 105.11731675 15.26381985 47.16650192 95.37308445 47.16650193-95.37065719 105.43164681-15.26260622-76.28875852-74.55326816 18.0345363-104.73745066-94.33664474 49.24909038-94.04901452-49.27943112z m94.03445096 67.61980207l72.76195081-37.98539377-13.90940917 80.79132444 58.86467792 57.52604444-81.32532149 11.77099379-36.38461629 73.57022815-36.38218904-73.56901452-81.02555496-11.76613927 58.86953244-57.53211259-13.90455466-80.75977007 72.43548444 37.9538394z m-69.70360414-34.51805392l13.07564562 78.09221215-56.69470814 55.24199348 78.43202844 11.25641482 34.85787022 71.1684551 35.22195911-71.1684551 78.13468919-11.26491023-56.6680083-55.21650725 13.44216178-78.10677572-70.08468386 37.03754905-69.71695406-37.0399763z m69.69874962 55.4313197l48.48450371-25.62336237-9.28912119 53.97375052 39.16868267 38.16501097-53.94583703 7.77936593-24.36968297 49.24059495-24.117248-49.24059495-54.263808-7.78786134 39.14319644-38.13952474-9.04032711-53.98831408 48.22964148 25.61972149zM581.44995555-102.24556562999999H282.29996089l-0.46603378 83.01712118c-0.57647408 8.9250323-0.09709037 37.16133925 24.93037986 63.40243912l0.85560888 0.85924978c24.55658192 23.65242785 58.67656533 24.69129482 62.48614874 24.73134458l0.30340741 0.00121364h69.7509357v65.02263466c-131.31472592 28.84433541-238.0716563 141.68155022-253.08546845 271.73895585l-0.18932622 1.63233185V785.24416c0 46.85459911 38.12010667 84.97349215 84.97470579 84.97349215h326.91784059v-57.12190578H271.85910518c-15.35848297 0-27.8528-12.49431703-27.8528-27.8528v-373.74695348c13.77955082-112.31292682 111.74252089-208.67390578 228.54466371-224.48507259l24.73013096-3.34961778v-171.01740563H370.82453333c-4.05716385-0.17476267-16.20559645-2.031616-23.18153955-8.38132622-8.11554133-8.77211497-8.81580563-16.79420682-8.8388646-19.06005334l0.49637452-2.35444148-0.35195259-0.73788682 0.15291734-27.23384888h242.3484871v-57.12190578zM210.71158992 393.86680889c-41.34350697 3.07533748-84.81693392 21.89630578-119.27309274 51.63508622-36.31543941 31.34441245-58.87317333 70.75460741-63.51530666 110.97429334l-0.18932622 1.63111822V718.05883733c0 32.8213997 26.70227911 59.52367882 59.52367881 59.52367882h125.65193007v-57.1231194H87.25754311a2.40298667 2.40298667 0 0 1-2.40055941-2.40055942v-156.53394963c3.3957357-25.12334697 19.32583822-51.5646957 43.90547912-72.777728 25.38185008-21.90844208 56.79786667-35.7292563 86.1883354-37.91500325l-4.2392083-56.96534756z m530.61343763-496.11237452h-299.1475674v57.12311941h242.34727348l0.16990815 30.12107377 0.12500385 0.3725843c-0.05704059 2.47337718-0.91022222 10.32434725-8.83643733 18.89135882-6.97837037 6.34971022-19.12680297 8.20656355-23.18396682 8.38132622H526.34510222V183.66130252000005l24.7277037 3.34961778c116.80335645 15.81116682 214.76389925 112.17214578 228.54466371 224.48507259V785.24416c0 15.35726933-12.49431703 27.85158637-27.85158638 27.85158637H424.84804267V870.21643852h326.91784058c46.85459911 0 84.97349215-38.11889303 84.97349216-84.97349215v-377.08443496l-0.18811259-1.63233186C821.53623703 276.46998755000004 714.77930667 163.63398637 583.46579437 134.78843732999997v-65.02263466h70.05312948c3.80958341-0.04126341 37.92956682-1.081344 62.48736237-24.73255822l0.85439526-0.85924978c25.02989748-26.24231348 25.50685392-54.47983408 24.93159349-63.40486637l-0.46724742-83.01469393zM812.91582578 393.86680889l-4.24042193 56.96534756c29.39168237 2.18574697 60.8052717 16.00534755 86.18954904 37.91378963 24.57842725 21.21424592 40.50852978 47.6568083 43.90426548 72.77894162v156.53394963a2.40298667 2.40298667 0 0 1-2.4005594 2.40055942H810.71794252v57.1231194h125.65071645c32.82018608 0 59.52246518-26.70227911 59.52246518-59.52367882v-159.94910341l-0.1881126-1.63233184c-4.64334697-40.21968592-27.19986725-79.63109452-63.51530666-110.97429333-34.45494518-29.73878045-77.92958578-48.56096237-119.27187911-51.63629986z"  horiz-adv-x="1024" />

    
    <glyph glyph-name="gerenxinxi" unicode="&#58903;" d="M957.11786667 817.3856H65.98933333c-18.37866667 0-33.23733333-14.90026667-33.23733333-33.26933333v-770.40533334c0-18.4 14.8576-33.27893333 33.23733333-33.27893333H248.56533333c18.35733333 0 33.2352 14.87893333 33.2352 33.27893333v60.26026667c0 16.608 13.5552 30.1632 30.2048 30.1632 16.65066667 0 30.2048-13.5552 30.2048-30.1632v-60.26026667c0-18.4 14.87893333-33.27893333 33.23733334-33.27893333h272.1888c18.37866667 0 33.2576 14.87893333 33.2576 33.27893333v60.26026667c0 16.608 13.5552 30.1632 30.18346666 30.1632 16.65066667 0 30.2048-13.5552 30.2048-30.1632v-60.26026667c0-18.4 14.8992-33.27893333 33.25866667-33.27893333h182.57706667c18.37866667 0 33.2576 14.87893333 33.2576 33.27893333V784.11626667c0 18.36906667-14.87893333 33.26933333-33.25866667 33.26933333M923.86133333 46.94826666999995H807.776V73.97333332999995c0 53.3024-43.376 96.69973333-96.69973333 96.69973334-53.30133333 0-96.69973333-43.39733333-96.69973334-96.69973334v-27.024H408.70613333V73.97333332999995c0 53.3024-43.376 96.69973333-96.69973333 96.69973334-53.36533333 0-96.69866667-43.39733333-96.69866667-96.69973334v-27.024H99.2256V750.84906667h824.63466667v-703.9008zM268.50133333 507.85173333c0-8.2816 6.3616-15.10293333 14.2592-15.10293333 0.064 0 0.14933333 0.04266667 0.256 0.04266667 2.94613333-39.78666667 34.26133333-79.6288 72.55786667-79.6288 38.27413333 0 69.6096 39.84106667 72.5568 79.6288 0.08533333 0 0.128-0.04266667 0.23466667-0.04266667 7.91893333 0 14.23786667 6.82133333 14.23786666 15.104 0 6.1568-3.45813333 11.42933333-8.432 13.7888a92.74986667 92.74986667 0 0 1 4.4608 28.48533333c0 48.62933333-37.18506667 88.10773333-83.05813333 88.10773334s-83.10186667-39.47946667-83.10186667-88.10666667c0-9.9904 1.57866667-19.52 4.43946667-28.4864-4.90986667-2.35946667-8.41066667-7.63306667-8.41066667-13.78986667M179.06133333 272.02453333000005h353.00586667a7.69813333 7.69813333 0 0 1 7.72693333 7.72693334v27.64373333c0 2.11413333-0.85333333 4.11946667-2.34666666 5.5936-33.92 32.93866667-75.33226667 56.1664-119.88266667 67.27786667-1.17333333 0.58666667-2.36906667 0.93973333-3.6928 0.93973333h-4.05546667c-1.28 0-2.51946667-0.3104-3.62986666-0.93866667-13.49013333-7.18506667-31.93386667-11.32586667-50.6112-11.32586666s-37.18506667 4.1408-50.61333334 11.36746666a7.984 7.984 0 0 1-3.67253333 0.89706667h-2.92373333c-0.576 0-1.21706667-0.04266667-1.81333334-0.2048-45.66186667-10.8224-88.1184-34.35093333-122.8928-68.01386667-1.51466667-1.47413333-2.32533333-3.48053333-2.32533333-5.5936v-27.64373333a7.69813333 7.69813333 0 0 1 7.72693333-7.72586667m412.49813334 114.8384H839.02933333c7.344 0 13.2992 5.98613333 13.2992 13.33013334 0 7.30026667-5.9552 13.30026667-13.2992 13.30026666H591.55946667c-7.344 0-13.2992-5.99893333-13.2992-13.30133333 0-7.34293333 5.9552-13.32906667 13.2992-13.32906667m0 105.1584H839.02933333c7.344 0 13.2992 5.94666667 13.2992 13.31093334 0 7.34293333-5.9552 13.2864-13.2992 13.2864H591.55946667c-7.344 0-13.2992-5.94346667-13.2992-13.2864 0-7.36426667 5.9552-13.31093333 13.2992-13.31093334"  horiz-adv-x="1024" />

    
    <glyph glyph-name="hetongdingdan" unicode="&#58904;" d="M445.2352-25.600000000000023H170.66666667a68.26666667 68.26666667 0 0 0-68.26666667 68.26666667V725.33333333a68.26666667 68.26666667 0 0 0 68.26666667 68.26666667h614.4a68.26666667 68.26666667 0 0 0 68.26666666-68.26666667v-233.60853333c24.576-10.78613333 47.03573333-24.9856 68.26666667-41.02826667V725.33333333A136.53333333 136.53333333 0 0 1 785.06666667 861.86666667H170.66666667A136.53333333 136.53333333 0 0 1 34.13333333 725.33333333v-682.66666666a136.53333333 136.53333333 0 0 1 136.53333334-136.53333334h343.17653333a343.92746667 343.92746667 0 0 0-68.608 68.26666667zM716.8 452.26666667a273.06666667 273.06666667 0 1 1 0-546.13333334 273.06666667 273.06666667 0 0 1 0 546.13333334z m0-477.73013334a204.66346667 204.66346667 0 1 0 0 409.3952 204.66346667 204.66346667 0 0 0 0-409.3952zM761.78773333 229.92213332999995L716.8 315.73333333000005l-44.98773333-85.8112L580.26666667 211.42186666999999l63.76106666-71.4752-11.60533333-97.28L716.8 84.24106667000001 801.1776 42.66666667000004l-11.60533333 97.28L853.33333333 211.42186666999999zM716.8 588.8a34.13333333 34.13333333 0 0 1-34.13333333 34.13333333H273.06666667a34.13333333 34.13333333 0 0 1 0-68.26666666h409.6a34.13333333 34.13333333 0 0 1 34.13333333 34.13333333zM477.86666667 418.13333333a34.13333333 34.13333333 0 0 1-34.13333334 34.13333334H273.06666667a34.13333333 34.13333333 0 0 1 0-68.26666667h170.66666666a34.13333333 34.13333333 0 0 1 34.13333334 34.13333333zM273.06666667 281.6a34.13333333 34.13333333 0 0 1 0-68.26666667h68.26666666a34.13333333 34.13333333 0 0 1 0 68.26666667h-68.26666666z"  horiz-adv-x="1024" />

    
    <glyph glyph-name="zhuzhuangtu" unicode="&#58905;" d="M132.32-48V816.48c0 24-19.2 43.2-43.2 43.2s-43.2-19.2-43.2-43.2v-864.48c0-24 19.2-43.2 43.2-43.2s43.2 19.68 43.2 43.2z m58.08 312.48c0-24 17.28-43.2 39.36-43.2h478.56c22.08 0 39.36 19.2 39.36 43.2s-17.28 43.2-39.36 43.2h-478.56c-22.08 0-39.84-19.2-39.36-43.2z m0 468.96c0-24 19.2-43.2 43.2-43.2H935.84c24 0 43.2 19.2 43.2 43.2s-19.2 43.2-43.2 43.2H233.6c-24.48 0-43.68-19.68-43.2-43.2z m0-701.76c0-24 20.16-43.2 45.6-43.2h427.68c25.44 0 45.6 19.2 45.6 43.2s-20.16 43.2-45.6 43.2h-427.68c-25.44 0-46.08-19.2-45.6-43.2z m0 465.6c0-24 18.24-43.2 41.28-43.2h567.84c23.04 0 41.28 19.2 41.28 43.2s-18.24 43.2-41.28 43.2h-568.32c-22.56 0-40.8-19.2-40.8-43.2z"  horiz-adv-x="1024" />

    
    <glyph glyph-name="banben" unicode="&#58906;" d="M974.57493333 550.57066667c-0.54613333 2.18453333-1.6384 4.36906667-2.73066666 6.5536-2.18453333 4.36906667-4.36906667 9.28426667-6.00746667 14.19946666l-0.54613333 0.54613334c-3.82293333 9.28426667-7.64586667 18.56853333-13.65333334 28.39893333-15.29173333 27.8528-61.71306667 74.27413333-140.9024 75.3664-40.96-0.54613333-97.75786667-12.01493333-133.80266666-66.62826667-2.18453333-2.73066667-3.82293333-5.46133333-4.9152-8.192L508.7232 256.2048l-159.47093333 344.064c-10.92266667 24.02986667-39.86773333 34.4064-63.35146667 22.9376-24.02986667-10.92266667-34.4064-39.3216-23.48373333-63.35146667l167.1168-359.90186666 0.54613333-0.54613334c21.84533333-40.41386667 49.152-61.16693333 82.46613333-61.16693333 31.67573333 1.09226667 57.89013333 22.39146667 76.45866667 63.35146667L757.21386667 556.0319999999999c0 0.54613333 0.54613333 0.54613333 0.54613333 1.09226667 4.36906667 7.09973333 15.29173333 23.48373333 52.97493333 23.48373333h0.54613334c38.77546667-0.54613333 55.7056-22.39146667 57.89013333-25.66826667 0.54613333-1.6384 1.6384-3.2768 2.73066667-4.36906666 1.6384-2.18453333 3.82293333-7.64586667 6.00746666-13.1072 2.18453333-5.46133333 4.9152-12.01493333 8.192-18.56853334 14.7456-45.32906667 22.39146667-90.112 22.39146667-133.25653333 0-107.58826667-37.6832-198.79253333-114.14186667-279.07413333C712.97706667 28.467200000000048 621.22666667-9.216000000000008 513.6384-9.216000000000008c-110.86506667 0-202.61546667 37.6832-279.62026667 115.23413333-79.18933333 75.91253333-116.87253333 167.66293333-116.87253333 278.528s37.6832 202.61546667 115.78026667 280.71253334c58.9824 62.2592 136.53333333 100.48853333 223.91466666 110.86506666 42.05226667 3.2768 58.9824 3.2768 107.04213334 0 5.46133333-0.54613333 55.7056-7.64586667 97.21173333-22.9376 12.01493333-4.36906667 25.12213333-3.82293333 36.59093333 1.6384 11.4688 5.46133333 20.75306667 14.7456 24.576 26.76053334l0.54613334 2.18453333v0.54613333c3.82293333 11.4688 2.73066667 23.48373333-2.18453334 34.4064-5.46133333 11.4688-14.7456 20.20693333-26.76053333 24.576C642.52586667 861.86666667 580.26666667 871.69706667 569.89013333 871.69706667c-52.97493333 3.82293333-74.82026667 3.82293333-122.88 0C336.6912 858.04373333 238.93333333 809.984 164.6592 731.88693333 67.9936 635.76746667 21.57226667 522.17173333 21.57226667 384.54613333s46.96746667-251.22133333 143.08693333-347.3408C259.6864-57.82186666999996 376.55893333-105.88160000000005 512-105.88160000000005c131.61813333 0 248.49066667 48.05973333 348.43306667 143.63306667 94.48106667 98.85013333 142.5408 215.17653333 142.5408 346.79466666-0.54613333 54.0672-9.8304 110.31893333-28.39893334 166.02453334z m-19.11466666 17.47626666z"  horiz-adv-x="1024" />

    
    <glyph glyph-name="fuwuqi" unicode="&#58907;" d="M113.92114583 563.4c0 0.54 840.0009375 0.6 840.0009375 0.6V804.6c0-0.54-840-0.6-840-0.6v-240.6zM61.84302083 234.12a58.3790625 58.3790625 0 0 0-7.921875 29.3390625V504.5409375c0 10.8 2.8809375 20.88 7.921875 29.5790625a58.3790625 58.3790625 0 0 0-7.921875 29.3409375V804.5390625C53.92208333 837.3609375 80.62208333 864 113.92208333 864h840.0009375a60 60 0 0 0 60-59.4v-241.2a58.696875 58.696875 0 0 0-7.921875-29.52 58.3790625 58.3790625 0 0 0 7.921875-29.3390625v-241.0809375c0-10.8-2.8809375-20.88-7.921875-29.58a58.3790625 58.3790625 0 0 0 7.921875-29.34v-241.08c0-32.82-26.7-59.46-60-59.46h-840a60 60 0 0 0-60 59.4V204.60000000000002a58.696875 58.696875 0 0 0 7.9209375 29.52z m52.078125-270.66c0 0.42 840.0009375 0.54 840.0009375 0.54V204.60000000000002c0-0.54-840-0.6-840-0.6v-240.6z m0 300c0 0.42 840.0009375 0.54 840.0009375 0.54V504.6c0-0.54-840-0.6-840-0.6v-240.6zM203.92208333 684a30 30 0 1 1 0 60 30 30 0 0 1 0-60z m119.9990625 0a30 30 0 1 1 0 60 30 30 0 0 1 0-60z m210 30a30 30 0 0 0 29.4609375 30h301.08a30 30 0 0 0 0-60H563.38208333a30 30 0 0 0-29.46 30z m-330-330a30 30 0 1 1 0 60 30 30 0 0 1 0-60z m120 0a30 30 0 1 1 0 60 30 30 0 0 1 0-60z m210 30a30 30 0 0 0 29.4609375 30h301.08a30 30 0 0 0 0-60H563.38208333a30 30 0 0 0-29.46 30z m-330-330a30 30 0 1 1 0 60 30 30 0 0 1 0-60z m120 0a30 30 0 1 1 0 60 30 30 0 0 1 0-60z m210 30a30 30 0 0 0 29.4609375 30h301.08a30 30 0 0 0 0-60H563.38208333a30 30 0 0 0-29.46 30z"  horiz-adv-x="1060" />

    
    <glyph glyph-name="biangeng" unicode="&#58908;" d="M398.6 419.7H107.6A75.9 75.9 0 0 0 32 495.3V786.3A75.9 75.9 0 0 0 107.6 862.2h291a75.9 75.9 0 0 0 75.6-75.6v-291a75.9 75.9 0 0 0-75.6-75.9z m-291 397.5a30 30 0 0 1-30-30v-291a30 30 0 0 1 30-30h291a30 30 0 0 1 30 30V786.3a30 30 0 0 1-30 30z m804.6-909.6h-291a75.9 75.9 0 0 0-75.6 75.6v291a75.9 75.9 0 0 0 75.6 75.6h291a75.9 75.9 0 0 0 75.6-75.6v-291a75.9 75.9 0 0 0-75.6-75.6z m-291 397.5a30 30 0 0 1-30-30v-291a30 30 0 0 1 30-30h291a30 30 0 0 1 30 30v291a30 30 0 0 1-30 30zM900.5 459a22.5 22.5 0 0 0-21.9 23.1A267 267 0 0 1 809 684a303 303 0 0 1-198 77.1 22.2 22.2 0 0 0-22.8 22.2 22.5 22.5 0 0 0 22.2 22.8A344.7 344.7 0 0 0 842 717a309.9 309.9 0 0 0 81.9-235.8A22.5 22.5 0 0 0 900.5 459z m-66.9 84l133.8 2.4L902.3 414l-68.7 129zM399.5-41.700000000000045a343.5 343.5 0 0 0-228.9 90 309.9 309.9 0 0 0-81.9 235.8 22.8 22.8 0 0 0 23.1 21.9 22.5 22.5 0 0 0 21.9-23.1 267.3 267.3 0 0 1 68.7-202.8 302.4 302.4 0 0 1 198.3-77.4 22.5 22.5 0 0 0 0-45z m-221.7 264L44 220.20000000000005l65.1 131.4 68.7-129.3z"  horiz-adv-x="1024" />

    
    <glyph glyph-name="jishuzhichizhichizhinengzhinengfuwufuwuke" unicode="&#58909;" d="M927.78986667 465.73866667c-23.84853333 46.23893333-50.7904 98.66666667-69.1776 147.0912C810.0064 742.08106667 726.448 874.42773333 474.1344 874.42773333c-262.32533333 0-429.98826667-227.92-429.98826667-384.84266666 0-139.99146667 62.44053333-242.84693333 103.58293334-310.9312 18.0224-29.856 32.22186667-53.33866667 32.03946666-65.89973334v-197.33653333c0-11.4688 14.7456-21.84533333 29.6736-21.84533333 17.29386667 0 31.85813333 7.28213333 31.85813334 21.664V112.75306666999995c0 24.02986667-19.11466667 59.89226667-43.69066667 105.40373333-38.59413333 72.0896-91.56906667 170.57493333-91.9328 271.42826667-0.90986667 169.11893333 182.95466667 310.02133333 345.33866667 322.21866666v-271.06453333C381.83786667 528.54293333 330.50133333 462.6432 330.50133333 384c0-82.82986667 63.35146667-145.08906667 147.456-145.08906667 30.58346667 0 59.89333333 9.10186667 85.1968 26.39573334l64.98986667-46.05653334c-1.81973333-30.03733333 23.66613333-55.52426667 53.33973333-55.52426666 29.4912 0 53.52106667 24.02986667 53.52106667 53.33973333 0 36.0448-34.95253333 61.16693333-68.8128 50.97173333l-59.52853333 42.05226667c15.10933333 24.02986667 22.9376 51.33653333 22.9376 79.73546667 0 68.9952-48.60586667 130.16213333-116.5088 148.00213333v273.06666667c145.8176-10.92266667 244.304-86.28906667 285.264-218.45333334 11.2864-36.95466667 48.05973333-102.8544 77.55093333-155.82933333 19.296-34.7712 41.14133333-74.0928 42.5984-82.2848-4.55146667-9.8304-55.34186667-35.13386667-100.3072-53.15626667l-5.27893333-2.0032v-126.1568c0-1.09226667-0.72853333-26.94186667-27.8528-54.61333333-25.30453333-26.032-84.10453333-27.6704-84.65066667-27.6704h-68.448v-175.3088l0.54506667-1.456c2.91306667-7.46453333 12.19733333-20.20693333 28.39893333-20.20693333 22.75626667 0 31.1296 14.19946667 32.58666667 21.84533333l0.18133333 113.41333333c20.0256-0.54613333 69.54133333 2.00213333 116.6912 31.85813334 64.80746667 41.14133333 64.26133333 109.5904 64.07893333 112.50346666v84.46826667c23.3024 8.192 100.48853333 38.22933333 105.40373334 80.2816 2.18453333 20.75306667-17.29386667 60.07466667-52.064 127.6128z m-360.08426667-76.096c0-49.51466667-40.41386667-89.5648-89.74826667-89.5648-49.51573333 0-89.9296 40.23146667-89.9296 89.56586666 0 49.33333333 40.23146667 89.56586667 89.74826667 89.56586667 49.51573333-0.1824 89.9296-40.23253333 89.9296-89.56586667z"  horiz-adv-x="1024" />

    
    <glyph glyph-name="baoxiao" unicode="&#58910;" d="M861.41531188 374.09887218999995a34.23825469 34.23825469 0 1 1 0 68.15775937h-84.79642125L870.69463719 552.01198219a33.91856813 33.91856813 0 0 1-4.159665 47.99880562 35.19824906 35.19824906 0 0 1-48.95786344-4.1606025L706.54114062 467.85586969 595.82579562 595.8501853099999a35.19824906 35.19824906 0 0 1-48.95786343 4.1606025 33.91856813 33.91856813 0 0 1-2.55936094-47.99880562L638.38338031 442.25663156h-89.59639594a34.23825469 34.23825469 0 1 1 0-68.15775937h122.87465532v-51.83784844H547.18761781a33.91856813 33.91856813 0 1 1 0-67.83713625H669.7425875v-92.47638a34.55887781 34.55887781 0 0 1 34.55887781-33.91856906 34.23825469 34.23825469 0 0 1 34.55887688 33.91856906v92.47638H861.09468875a34.23825469 34.23825469 0 1 1 0 68.15776031H739.18002875v51.51722438zM1073.24699094 864H67.20612406A34.87856344 34.87856344 0 0 1 36.80784969 846.08072062a35.19824906 35.19824906 0 0 1 0-35.51887218l81.59675062-129.91430438L37.44815844 550.73230125a36.15918188 36.15918188 0 0 1 0-36.79855312l80.95644187-129.91524188L37.44815844 254.10420094000006a36.15918188 36.15918188 0 0 1 0-36.79855219l80.95644187-129.91524281L37.44815844-42.52389844000004a35.19824906 35.19824906 0 0 1 0-35.51887312 34.87856344 34.87856344 0 0 1 31.99857937-17.91927844h1003.80025313a79.35707531 79.35707531 0 0 1 79.03645125 79.03645219V784.96354781A79.35707531 79.35707531 0 0 1 1073.24699094 864z m9.27932531-880.92559781a9.27932531 9.27932531 0 0 0-9.27932531-9.27932531H349.11555312v35.19824906a34.87856344 34.87856344 0 1 1-69.75712687 0v-35.19824906H129.92360094l59.19718312 95.99573625a35.19824906 35.19824906 0 0 1 0 37.11917625L108.16528063 235.54461281l80.95644093 129.91524281a35.19824906 35.19824906 0 0 1 0 37.11823876L108.16528063 532.4933362500001l80.95644093 127.99431562a35.19824906 35.19824906 0 0 1 0 37.11917625L129.92453844 793.60256437h149.43388781v-35.19824906a34.87856344 34.87856344 0 0 1 69.75712687 0V794.24287313h724.13143782a9.27932531 9.27932531 0 0 0 9.27932531-9.27932532V-16.926535309999963zM352.31616125 312.66201280999996a31.99857844 31.99857844 0 0 1-31.99951594-34.55887781v-147.83358375a31.99857844 31.99857844 0 1 1 63.99715688 0V278.10313499999995a31.99857844 31.99857844 0 0 1-31.99857844 34.55887781z m0 295.34841938a31.99857844 31.99857844 0 0 1-31.99951594-34.23919125v-147.83358375a31.99857844 31.99857844 0 1 1 63.99715688 0V573.77030344a31.99857844 31.99857844 0 0 1-31.99857844 34.23919125z"  horiz-adv-x="1194" />

    
    <glyph glyph-name="xiangyingchaoshi" unicode="&#58911;" d="M625.92-99.20000000000005c-9.6-2.56-19.2-4.48-29.44-6.4-10.24-1.92-21.12 0.64-30.08 6.4-8.32 5.76-14.08 15.36-16 25.6-3.84 21.76 10.24 42.24 31.36 46.72 8.32 1.28 16.64 3.2 24.32 5.12 21.12 5.12 42.88-7.68 48-28.8 5.76-21.76-7.04-43.52-28.16-48.64z m323.2 585.6c-12.16-3.84-25.6-1.92-35.2 5.12-6.4 4.48-12.16 11.52-14.72 19.84-2.56 8.32-5.76 16-8.32 23.68-8.32 20.48 1.92 43.52 21.76 51.84 20.48 8.32 43.52-1.92 51.2-22.4 3.84-9.6 7.04-18.56 10.24-28.16 6.4-20.48-4.48-42.88-24.96-49.92zM778.88-32c-8.32-5.76-16.64-10.88-25.6-16-14.08-8.32-30.08-7.04-42.24 1.92-4.48 3.2-8.32 7.68-11.52 12.8-10.88 19.2-4.48 43.52 14.72 54.4 7.04 4.48 14.08 8.32 21.12 13.44 17.92 12.16 42.88 7.04 54.4-11.52 12.16-17.92 7.04-42.88-10.88-55.04z m179.2 363.52c-7.68 0-15.36 2.56-21.76 7.04-10.88 7.68-17.28 20.48-16.64 33.28v25.6c-0.64 21.76 16 40.32 37.76 41.6 21.76 0.64 40.32-16 40.96-38.4 0.64-10.24 0.64-20.48 0-30.08 0-22.4-17.92-39.68-40.32-39.04z m-57.6-247.68c-5.76-8.32-12.16-16-18.56-23.68-13.44-16-36.48-18.56-52.48-7.04-1.28 0.64-1.92 1.28-3.2 2.56-16.64 14.08-18.56 39.68-4.48 56.32 5.12 6.4 10.88 12.8 15.36 19.84 13.44 17.28 37.76 21.12 55.04 7.68 17.92-13.44 21.12-38.4 8.32-55.68z m76.16 149.76l-9.6-28.8c-7.68-20.48-30.72-30.72-51.2-23.04-3.2 1.28-5.76 2.56-8.96 4.48-14.72 10.24-20.48 29.44-14.08 46.72 3.2 7.68 5.76 16 8.32 23.68 6.4 21.12 28.8 32.64 49.28 26.24 21.12-5.76 32.64-28.16 26.24-49.28zM851.2 673.92l-134.4-12.16c-14.72-1.28-20.48 7.68-11.52 20.48l30.72 44.8c-143.36 96.64-327.04 90.24-462.72-3.84-0.64 0-0.64-0.64-1.28-1.28-38.4-26.88-72.96-60.8-101.12-101.76-131.2-187.52-86.4-447.36 99.84-579.2 12.8-8.96 25.6-17.28 39.04-24.96 7.04-3.84 14.72-7.68 22.4-11.52 0.64 0 0.64-0.64 1.28-0.64 32-15.36 65.92-26.24 101.12-32.64 21.76-3.84 35.84-24.32 32-46.08-3.84-21.76-24.32-35.84-46.08-32-71.04 12.8-136.96 40.32-195.84 82.56-22.4 16-43.52 33.92-62.72 53.12l-0.64 0.64C88.96 101.75999999999999 40.96 193.91999999999996 23.68 296.32000000000005c-1.92 10.24-3.2 20.48-4.48 30.08v1.92c-1.28 10.24-1.92 19.84-2.56 30.08v1.28c-4.48 102.4 22.4 202.88 78.08 289.28 0.64 0.64 0.64 1.28 1.28 1.92 3.2 5.12 7.04 10.24 10.24 15.36 1.92 3.2 4.48 6.4 6.4 8.96l1.92 1.92c67.2 91.52 161.92 155.52 270.08 183.68 0.64 0 0.64 0 1.28 0.64 12.16 3.2 24.96 5.76 37.12 8.32 125.44 21.76 252.16-5.12 357.12-76.8l30.72 44.8c8.32 12.8 19.2 10.88 23.04-3.84l35.84-130.56c5.12-15.36-3.84-28.16-18.56-29.44z m-65.28-462.08c-5.76-10.88-16.64-17.28-28.16-17.28-5.12 0-10.24 1.28-14.72 3.84L451.2 349.44000000000005V670.72c0 17.92 14.08 32 32 32s32-14.72 32-32v-281.6l256.64-133.76c16-8.32 21.76-27.52 14.08-43.52z m0 0"  horiz-adv-x="1024" />

    
    <glyph glyph-name="rizhiyichang" unicode="&#58912;" d="M234.27218 864h58.36780969v-179.99999344h-58.36874719V864zM583.99997844 864h58.27218562v-179.99999344H583.99997844V864zM175.99999437 564.00001125h524.59216688v-59.99999719H175.99999437v59.99999719z m0-179.9999925h291.40780125v-59.99999812H175.99999437v59.99999812z m352.55998594-383.999985H32V816.00000188h767.99997v-381.6477975C911.16871531 403.00783031 991.9999625 298.8956475 991.9999625 174.00002718999997c0-149.99999437-116.59218281-269.99998969-262.27217719-269.99998969a258.38436469 258.38436469 0 0 0-201.1199925 95.99999625z m212.35217906 443.75998312V757.68000375H91.08781062v-699.35997188H492.36873219A277.72780125 277.72780125 0 0 0 467.40779562 174.00002718999997c0 149.99999437 116.59218281 269.99998969 262.31998969 269.99998875 3.744375 0 7.4878125-0.095625 11.18437407-0.23999906zM175.99999437 204.00002530999996h233.13561563v-59.99999719H175.99999437v59.99999719z m553.72779094 179.99999344c-110.73562031 0-203.9999925-95.99999625-203.9999925-209.99999156s93.26437125-209.99999156 203.9999925-209.9999925 203.9999925 95.99999625 203.99999156 209.9999925-93.26343375 209.99999156-203.99999156 209.99999156zM703.99997375 336.00002062h59.75999812v-203.99999249H703.99997375V336.00002062z m59.75999812-239.99999062v-59.75999812H703.99997375V96.00003000000004h59.75999812z"  horiz-adv-x="1024" />

    
    <glyph glyph-name="zhishi" unicode="&#58913;" d="M112.28693333 239.87733333000006c-14.57066667 0-26.35413333-11.81866667-26.35413333-26.34986666v-48.11733334c0-14.57173333 11.78346667-26.34986667 26.35413333-26.34986666 14.53013333 0 26.31253333 11.77813333 26.31253334 26.34986666v48.11733334c0 14.53013333-11.7824 26.34986667-26.31253334 26.34986666zM991.4432 558.7103999999999L516.24853333 770.3712c-7.0592 3.17546667-15.136 3.02506667-22.12373333-0.2944L31.87733333 547.9328c-9.3952-4.50773333-15.22986667-14.03093333-14.9216-24.44693333 0.24746667-10.40853333 6.5664-19.60213333 16.15573334-23.62666667l52.92373333-22.06933333c-0.0096-0.3488-0.1024-0.68373333-0.1024-1.03893334v-189.1232c0-14.5344 11.78346667-26.31786667 26.35413333-26.31786666 14.53013333 0 26.31253333 11.78346667 26.31253334 26.31786666V455.8784l50.29973333-20.97173333v-272.1472c0-0.81813333 0.0416-1.63093333 0.12266667-2.4384-0.0416-0.736-0.07146667-1.55946667-0.08213334-2.464-0.07253333-26.8128 12.05013333-51.2576 30.27413334-70.88213334 55.0944-58.08 164.87466667-90.896 292.76373333-91.63733333 85.216 0.07253333 162.5184 15.63093333 220.78293333 42.26346667 29.13173333 13.41866667 53.68533333 29.616 71.9808 49.37386666 18.16426667 19.62453333 30.30613333 44.06826667 30.26453334 70.88106667 0 1.01333333-0.0288 1.92426667-0.08106667 2.73066667 0.06186667 0.72106667 0.08106667 1.44746667 0.08106667 2.1728V441.51253333L991.36 510.5664c9.52746667 4.208 15.6928 13.62453333 15.6928 24.03413333 0 10.41386667-6.12266667 19.90186667-15.6096 24.10986667zM765.9776 122.71466667000004c-34.98666667-39.68106667-136.10133333-75.41973333-253.99893333-74.67733334-78.61973333-0.07253333-149.68533333 14.816-198.80213334 37.46666667-24.5728 11.248-43.488 24.3776-55.2384 37.21066667-11.45386667 12.5952-16.032 23.69813333-16.32 34.1792 0.12266667 0.74666667 0.30826667 2.048 0.45226667 3.9104a26.37333333 26.37333333 0 0 1-0.4736 7.38346666V231.09333332999995c15.04426667-12.53333333 33.40266667-23.56586667 53.97333333-33.0528 56.43306667-25.83893333 132.48-41.30133333 216.40853334-41.3408 16.86613333 0 33.39306667 0.62613333 49.54986666 1.84213334 8.69546667 0.6624 15.2096 8.24746667 14.57173334 16.93333333-0.6592 8.72533333-8.2336 15.23946667-16.95893334 14.576a639.13813333 639.13813333 0 0 0-47.1616-1.72906667c-79.94666667-0.03626667-152.24746667 15.01866667-203.19573333 38.4288-32.4096 14.79786667-55.008 32.5696-67.18613333 50.50133334V412.9312l261.53173333-109.0432c0.8384-0.34986667 1.71733333-0.52053333 2.5824-0.77866667 0.81813333-0.24533333 1.6256-0.57386667 2.45973333-0.7392 0.71466667-0.13866667 1.44-0.1344 2.16533334-0.21013333 0.97813333-0.11413333 1.95093333-0.29546667 2.9376-0.29546667 0.0416 0 0.08213333 0.01706667 0.12266666 0.01706667 1.2704 0.00533333 2.5312 0.20053333 3.79306667 0.3904 0.50986667 0.0768 1.03466667 0.06186667 1.54346667 0.17493333a26.3616 26.3616 0 0 1 5.19146666 1.6608l258.3936 114.1184v-140.94933333c-4.88213333-7.25333333-11.43786667-14.50986667-19.96266666-21.696-20.76586667-17.47946667-52.06933333-33.3728-90.41066667-45.0976-8.3776-2.54186667-13.0496-11.39306667-10.5088-19.7632 2.10133333-6.79786667 8.3872-11.1648 15.1392-11.1648a15.68 15.68 0 0 1 4.608 0.69546667c41.13813333 12.62613333 75.74826667 29.6768 101.13493333 50.82026666v-63.056a25.744 25.744 0 0 1-0.44053333-7.50186666c0.17493333-1.792 0.37013333-2.9888 0.46293333-3.64266667-0.29866667-10.47786667-4.87786667-21.5712-16.36266666-34.15466667z m32.096 360.07253333l-0.05013333-0.01493333-285.04746667-125.89333334-287.56586667 119.91893334c-0.00533333 0-0.01493333 0.0064-0.02133333 0.0064L107.648 525.90506667l398.30186667 191.41226666 409.76746666-182.56746666-117.64266666-51.96266667z"  horiz-adv-x="1024" />

    
    <glyph glyph-name="ditu" unicode="&#58914;" d="M982.32875 321.67125v50.8659375l-14.1496875-1.6125-183.58125-31.8796875v318.80625l-51.583125-5.9109375v-308.596875L573.2534375 392.596875a25.87125 25.87125 0 0 1-32.23875-17.015625c-1.9696875-6.4471875-1.2534375-13.6115625 1.790625-19.700625s8.596875-10.5675 15.225-12.5371875l174.984375-53.9109375v-302.506875l33.6721875-9.135 17.7309375 1.970625v306.984375l172.6565625 30.09 14.686875 2.686875v0.358125l10.5675 1.790625zM957.4325 316.83562500000005l14.686875 2.5078125v0.178125l-14.686875-2.6859375z m24.89625 4.835625l-10.3884375-1.790625v-0.358125l10.3875 1.9696875v0.1790625zM1067.9403125 337.4325v44.9559375l-85.6125-9.6721875v-50.8659375l18.9853125 3.403125 66.6271875 12.1790625z m-99.58125 33.493125l14.14875 1.6125v0.894375l-14.1496875-2.506875z m13.96875-49.4334375l-10.3875-1.9696875v-0.1790625l10.3875 1.790625v0.358125z m-9.4921875-81.313125v-2.14875l1.074375 0.178125v2.1496875l-1.074375-0.1790625z m28.4775 84.8953125l-18.984375-3.403125v-0.178125l18.984375 3.58125zM398.448125 76.65656249999995l-6.2690625 1.6125 6.2690625-1.6125z m0 128.955c0 9.135-4.8365625 17.731875-12.89625 22.3884375-7.880625 4.6565625-17.7309375 4.6565625-25.790625 0s-12.8953125-13.074375-12.8953125-22.3875v-115.164375l45.313125-12.1790625 6.2690625-1.6125V205.61249999999995zM784.775-20.059687499999995l-17.7309375-1.970625 17.7309375-4.835625v6.80625z m273.6721875 407.8209375l-77.19375-14.5078125v-51.9403125l77.19375 13.6125v52.835625zM392.1790625 78.448125l-45.313125 12.178125v-15.58125l34.3875 6.268125zM379.1046875 785.19375c78.0890625 0 141.67125-63.58125 141.67125-141.67125 0-20.955-5.551875-43.880625-15.403125-62.686875-6.80625-12.5371875-65.19375-97.2534375-125.91-183.9403125-55.7015625 78.80625-118.925625 169.6125-126.2690625 183.5821875-10.3875 20.7759375-15.76125 41.9109375-15.76125 63.2240625 0 77.91 63.5821875 141.4921875 141.6721875 141.4921875zM184.23875 545.551875c12.5371875-25.074375 128.596875-188.596875 163.880625-238.209375 7.164375-10.2084375 18.984375-16.2975 31.5225-16.2975h0.1790625c12.5371875 0 24.358125 6.0890625 31.5225 16.4775 35.1046875 49.9696875 150.80625 214.7465625 162.62625 237.4921875 15.5821875 30.09 24.18 65.015625 24.18 98.32875C597.96875 764.23875 499.8209375 862.3875 379.1046875 862.3875S160.23875 764.23875 160.23875 643.5225c0-33.4921875 8.0596875-66.2690625 24-97.970625zM314.80625 643.5225a64.2984375 64.2984375 0 1 1 128.596875 0 64.2984375 64.2984375 0 1 1-128.596875 0zM87.880625-5.015625c0-19.5215625-12.5371875-35.461875-27.9403125-35.461875S32-24.53718749999996 32-5.015625V768c0 19.5225 12.5371875 35.4628125 27.9403125 35.4628125S87.880625 787.7015625 87.880625 768v-773.015625z m696.71625-39.0440625c0-18.984375-11.4628125-34.3875-25.790625-34.3875-14.1496875 0-25.790625 15.403125-25.790625 34.3875V707.8209375c0 18.984375 11.461875 34.3875 25.790625 34.3875 14.14875 0 25.790625-15.403125 25.790625-34.3875v-751.880625z m-386.14875 84.71625c0-3.045-11.4628125-5.551875-25.790625-5.551875-14.1496875 0-25.7915625 2.506875-25.7915625 5.551875V161.3728125c0 3.045 11.4628125 5.5528125 25.790625 5.5528125 14.1496875 0 25.790625-2.5078125 25.790625-5.5528125v-120.71625z m669.4921875-45.67125c0-19.5225-12.5371875-35.4628125-27.9403125-35.4628125s-27.9403125 15.76125-27.9403125 35.4628125V768c0 19.5225 12.5371875 35.4628125 27.9403125 35.4628125s27.9403125-15.76125 27.9403125-35.4628125v-773.015625zM60.2984375-40.29843749999998c-7.164375-1.2534375-15.403125 9.8503125-18.0890625 25.074375s0.8953125 28.4775 8.0596875 29.9109375L337.371875 66.984375c7.3434375 1.2534375 15.403125-9.85125 18.09-25.0753125s-0.8953125-28.4775-8.0596875-29.91L60.2984375-40.29843749999998z m699.2240625-53.731875c-7.164375-1.2534375-15.403125 9.85125-18.09 25.0753125s0.89625 28.4775 8.0596875 29.91l287.1046875 52.2984375c7.3434375 1.254375 15.403125-9.8503125 18.09-25.074375s-0.89625-28.4775-8.0596875-29.91L759.5225-94.03125z m0 790.209375c-7.164375-1.2534375-15.403125 9.85125-18.09 25.074375s0.89625 28.4775 8.0596875 29.9109375l287.1046875 52.2984375c7.3434375 1.2534375 15.403125-9.85125 18.09-25.074375s-0.89625-28.4784375-8.0596875-29.9109375l-287.1046875-52.2984375zM621.4325 736.8356249999999c-3.403125 1.074375-2.6859375 13.970625 1.970625 28.6565625 4.4775 14.686875 11.1046875 25.790625 14.506875 24.7171875l137.9109375-42.628125c3.403125-1.0734375 2.686875-13.96875-1.970625-28.655625-4.4775-14.686875-11.10375-25.790625-14.506875-24.71625l-137.9109375 42.62625zM335.403125 12.358124999999973c-10.3875 2.686875-15.9403125 17.015625-12 31.880625 3.76125 15.045 15.403125 24.8953125 25.790625 22.209375L763.641875-39.403125000000045c10.3875-2.686875 15.9403125-17.015625 12-31.880625-3.76125-15.045-15.403125-24.8953125-25.970625-22.209375L335.403125 12.35906250000005z"  horiz-adv-x="1106" />

    
    <glyph glyph-name="gerenjixiao" unicode="&#58915;" d="M699.09839799 198.50553200000002l39.86160901 49.764855a441.633001 441.633001 0 0 1-116.272762 67.103021A305.726491 305.726491 0 0 1 794.334504 590.289804 305.769427 305.769427 0 1 1 333.917489 326.422945c-181.889-55.034004-314.3117-224.004251-314.3117-423.911405h63.747022a378.992331 378.992331 0 0 0 378.991332 379.034269c87.289945 0 169.989729-29.577931 236.753256-83.040277zM246.456799 590.289804a242.06534199 242.06534199 0 1 0 484.13068299 0 242.06534199 242.06534199 0 0 0-484.13068299 0zM791.23212601 304.02631499999995l-10.96366501-62.76848 138.28596501-24.096099-238.49466201-150.313045-76.32628 79.640342-285.795187-212.78496699 38.077268-51.12383001 240.66343 179.21099001 73.43558699-76.62283801 277.67828101 175.047193-29.493058-126.387692 62.087495-14.448473 56.437911 241.937532z"  horiz-adv-x="1050" />

    
    <glyph glyph-name="biangeng1" unicode="&#58916;" d="M199.04 526.0799999999999h170.88a83.84 83.84 0 0 1 85.12 85.12V782.08A83.84 83.84 0 0 1 369.92 867.2H199.04a83.84 83.84 0 0 1-85.12-85.12V611.2a85.76 85.76 0 0 1 85.12-85.12z m-28.16 256a26.88 26.88 0 0 0 28.16 28.16h170.88a26.88 26.88 0 0 0 28.16-28.16V611.2a26.88 26.88 0 0 0-28.16-28.16H199.04a26.88 26.88 0 0 0-28.16 28.16zM841.6 241.91999999999996H640a69.12 69.12 0 0 1-68.48-68.48v-204.8A69.12 69.12 0 0 1 640-99.20000000000005h204.8a69.12 69.12 0 0 1 68.48 68.48v204.8a69.12 69.12 0 0 1-68.48 68.48z m8.32 181.76h-39.68l71.04-122.24 71.04 122.24h-45.44a398.08 398.08 0 0 1-394.88 358.4v-56.96a343.68 343.68 0 0 0 338.56-301.44z m-676.48-82.56h39.68l-70.4 122.24-71.04-122.24h45.44a397.44 397.44 0 0 1 394.88-355.2v56.96a341.12 341.12 0 0 0-338.56 298.24z m0 0"  horiz-adv-x="1024" />

    
    <glyph glyph-name="zhongduan" unicode="&#58917;" d="M1024 384c0-282.795-229.205-512-512-512S0 101.205 0 384 229.205 896 512 896s512-229.205 512-512z m-556.117 75.69l143.36 104.875c36.565 25.472 82.346 17.152 107.946-19.754 25.771-37.206 17.579-84.011-19.2-109.995L557.91 334.293l35.414-51.114 142.293 100.693c60.928 43.093 76.288 131.03 34.603 196.139-41.131 64.341-129.024 78.677-191.574 34.474L432.3 510.933l35.584-51.242z m55.04-14.933l35.626-51.413 80.982 57.301-35.627 51.414-80.981-57.302z m17.621-135.594l-91.307-131.67c-16.384-23.68-59.989-24.405-93.056 1.707-35.84 28.288-50.048 66.645-34.56 88.917l90.496 130.646-50.816 35.968-90.026-134.827c-33.878-48.939-9.216-123.904 51.712-166.955 61.013-43.136 139.349-40.96 173.44 8.278l90.026 129.834-45.909 38.102z m-41.557 25.002l-50.944 36.054-56.662-81.75 50.944-36.053 56.662 81.75z"  horiz-adv-x="1024" />

    
    <glyph glyph-name="xiangying" unicode="&#58918;" d="M519.79377778 879.16088889A495.16088889 495.16088889 0 1 1 1014.95466667 384 495.16088889 495.16088889 0 0 1 519.79377778 879.16088889zM741.15982222 384L298.83505778 46.12551111000005 472.84110222 384H298.83505778L741.15982222 721.8744888900001 567.15491556 384z"  horiz-adv-x="1024" />

    
    <glyph glyph-name="rongyu" unicode="&#58919;" d="M511.99772445 666.4578844499999c-220.7744 0-396.09116445-175.32017778-396.09116445-396.0888889C115.90542222 49.59573333000003 291.22332445-125.72444444999996 511.99772445-125.72444444999996s396.08775111 175.32017778 396.0877511 396.09457778c0 220.76871111-175.31335111 396.08888889-396.0877511 396.08888889z m201.29336888-357.13251556l-77.92412444-77.91729778 19.49013333-110.3872c6.48988445-38.96092445-12.99000889-51.95093333-45.45422222-32.46307556l-97.40515555 51.94410667-97.39719112-51.94410667c-32.47217778-19.48785778-51.94410667 0-45.45422222 32.46307556l19.47420444 110.3872-77.90819555 77.91729778c-25.98115555 25.97205333-19.49013333 51.95093333 19.47306667 58.44195556l103.88935111 12.98318222 45.45194667 97.39719111c12.99683555 32.47217778 38.96888889 32.47217778 58.44309333 0l45.45422222-97.39719111 110.3872-12.98318222c38.96092445-12.98887111 51.95093333-32.46990222 19.47989333-58.44195556zM908.08547555 848.27022222c6.49898667 6.48988445 6.49898667 12.98773333 6.49898667 12.98773333 0 12.98432-12.99000889 25.96522667-25.97205333 25.96522667H641.86595555c-12.98887111 0-25.97205333-6.49102222-25.97205333-19.47306667l-77.92412444-142.85141333s162.33927111-6.49671111 259.73646222-103.89504l110.37923555 227.26656zM486.02567111 724.89984L408.10951111 874.24341333c0 12.98204445-12.99000889 19.48103111-25.98001778 19.48103112H141.88088889c-19.48216889 0-32.46648889-12.99000889-32.46648889-25.97205334 0-6.49216 0-12.99000889 6.49102222-12.99000889l110.39061333-227.26428444c97.39719111 84.41400889 259.72849778 97.40174222 259.72849778 97.40174222z"  horiz-adv-x="1024" />

    
    <glyph glyph-name="_zhuanzhengongzuoliang" unicode="&#58920;" d="M894.29333333-107.51999999999998H129.70666667A109.22666667 109.22666667 0 0 0 20.48 1.7066666700000042V657.06666667a109.22666667 109.22666667 0 0 0 109.22666667 109.22666666v-163.84h218.45333333V766.29333333h327.68v-163.84h218.45333333V766.29333333A109.22666667 109.22666667 0 0 0 1003.52 657.06666667v-655.36a109.22666667 109.22666667 0 0 0-109.22666667-109.22666667zM293.54666667 329.38666666999995H184.32v-273.06666667h109.22666667v273.06666667z m273.06666666 218.45333333H457.38666667v-491.52h109.22666666V547.8399999999999z m273.06666667-109.22666667H730.45333333v-382.29333333h109.22666667V438.61333333zM730.45333333 875.52h109.22666667V657.06666667H730.45333333V875.52z m-546.13333333 0h109.22666667V657.06666667H184.32V875.52z"  horiz-adv-x="1024" />

    
    </font>
</defs>
</svg>
